<svg width="24" height="24" viewBox="0 0 24 24" fill="none" xmlns="http://www.w3.org/2000/svg">
<path d="M10.46 10H13.46C14.786 10 16.0578 10.5268 16.9955 11.4644C17.9332 12.4021 18.46 13.6739 18.46 15V21C18.46 21.5304 18.2492 22.0391 17.8742 22.4142C17.4991 22.7893 16.9904 23 16.46 23H7.45996C6.92953 23 6.42082 22.7893 6.04575 22.4142C5.67067 22.0391 5.45996 21.5304 5.45996 21V15C5.45996 13.6739 5.98674 12.4021 6.92442 11.4644C7.86211 10.5268 9.13388 10 10.46 10Z" fill="#C7CED5"/>
<path d="M12 9C14.2091 9 16 7.20914 16 5C16 2.79086 14.2091 1 12 1C9.79086 1 8 2.79086 8 5C8 7.20914 9.79086 9 12 9Z" fill="#C7CED5"/>
<path d="M17.5 22C19.433 22 21 20.433 21 18.5C21 16.567 19.433 15 17.5 15C15.567 15 14 16.567 14 18.5C14 20.433 15.567 22 17.5 22Z" fill="#6B758F"/>
<path d="M17.5 20C18.3284 20 19 19.3284 19 18.5C19 17.6716 18.3284 17 17.5 17C16.6716 17 16 17.6716 16 18.5C16 19.3284 16.6716 20 17.5 20Z" fill="white"/>
<path d="M18.7695 14.0098H16.2695V16.0098H18.7695V14.0098Z" fill="#6B758F"/>
<path d="M14.2549 15.1621L13.0049 17.3271L14.7369 18.3271L15.9869 16.1621L14.2549 15.1621Z" fill="#6B758F"/>
<path d="M12.9873 19.6543L14.2373 21.8193L15.9694 20.8193L14.7194 18.6543L12.9873 19.6543Z" fill="#6B758F"/>
<path d="M16.2295 22.9902H18.7295V20.9902H16.2295V22.9902Z" fill="#6B758F"/>
<path d="M20.7516 21.8506L22.0016 19.6855L20.2695 18.6855L19.0195 20.8506L20.7516 21.8506Z" fill="#6B758F"/>
<path d="M22.0191 17.3545L20.7691 15.1895L19.0371 16.1895L20.2871 18.3545L22.0191 17.3545Z" fill="#6B758F"/>
</svg>
