<svg width="24" height="24" viewBox="0 0 24 24" fill="none" xmlns="http://www.w3.org/2000/svg">
<path fill-rule="evenodd" clip-rule="evenodd" d="M13 5V22H11V5H13Z" fill="#CBDFFF"/>
<path d="M15.0098 5C15.0098 3.34315 13.6666 2 12.0098 2C10.3529 2 9.00977 3.34315 9.00977 5C9.00977 6.65685 10.3529 8 12.0098 8C13.6666 8 15.0098 6.65685 15.0098 5Z" fill="#5096FF"/>
<path fill-rule="evenodd" clip-rule="evenodd" d="M20 10V15.5352L17 17.5352V22H15V16.4648L18 14.4648V10H20Z" fill="#CBDFFF"/>
<path d="M22.0098 9C22.0098 7.34315 20.6666 6 19.0098 6C17.3529 6 16.0098 7.34315 16.0098 9C16.0098 10.6569 17.3529 12 19.0098 12C20.6666 12 22.0098 10.6569 22.0098 9Z" fill="#5096FF"/>
<path fill-rule="evenodd" clip-rule="evenodd" d="M6.00977 14.4648V10H4.00977V15.5352L7.0097 17.5352V22H9.0097V16.4648L6.00977 14.4648Z" fill="#CBDFFF"/>
<path d="M2.00977 9C2.00977 10.6569 3.35291 12 5.00977 12C6.66662 12 8.00977 10.6569 8.00977 9C8.00977 7.34315 6.66662 6 5.00977 6C3.35291 6 2.00977 7.34315 2.00977 9Z" fill="#5096FF"/>
</svg>
