<svg width="24" height="24" viewBox="0 0 24 24" fill="none" xmlns="http://www.w3.org/2000/svg">
<path d="M12 23C13.6569 23 15 21.6569 15 20C15 18.3431 13.6569 17 12 17C10.3431 17 9 18.3431 9 20C9 21.6569 10.3431 23 12 23Z" fill="#737A83"/>
<path d="M4.5 19V10.45C4.5 6.34 7.84 3 11.95 3H12.05C16.16 3 19.5 6.34 19.5 10.45V19H4.5Z" fill="#E7ECEF"/>
<path d="M20 18H4C3.44772 18 3 18.4477 3 19C3 19.5523 3.44772 20 4 20H20C20.5523 20 21 19.5523 21 19C21 18.4477 20.5523 18 20 18Z" fill="#E7ECEF"/>
<path d="M14 3C14 1.89543 13.1046 1 12 1C10.8954 1 10 1.89543 10 3V5C10 6.10457 10.8954 7 12 7C13.1046 7 14 6.10457 14 5V3Z" fill="#E7ECEF"/>
</svg>
