<svg width="24" height="24" viewBox="0 0 24 24" fill="none" xmlns="http://www.w3.org/2000/svg">
<path d="M15.5107 21H8.51074L9.51074 16H14.5107L15.5107 21Z" fill="#A0A6AB"/>
<path d="M2.01074 16.67C2.03356 16.9125 2.15166 17.1361 2.33913 17.2917C2.5266 17.4473 2.76813 17.5223 3.01074 17.5H21.0107C21.2528 17.5196 21.4929 17.4437 21.6798 17.2886C21.8666 17.1335 21.9854 16.9115 22.0107 16.67V15H2.01074V16.67Z" fill="#E7ECEF"/>
<path d="M21.0107 3H3.01074C2.74553 3 2.49117 3.10534 2.30363 3.29288C2.1161 3.48041 2.01074 3.73478 2.01074 4V15H22.0107V4C22.0107 3.73478 21.9054 3.48041 21.7178 3.29288C21.5303 3.10534 21.276 3 21.0107 3Z" fill="#737A83"/>
</svg>
