<svg width="24" height="24" viewBox="0 0 24 24" fill="none" xmlns="http://www.w3.org/2000/svg">
<path d="M17.07 6.00977H2C1.73478 6.00977 1.48043 6.11512 1.29289 6.30266C1.10536 6.4902 1 6.74455 1 7.00977V18.0098C1 18.275 1.10536 18.5293 1.29289 18.7169C1.48043 18.9044 1.73478 19.0098 2 19.0098H22C22.2652 19.0098 22.5196 18.9044 22.7071 18.7169C22.8946 18.5293 23 18.275 23 18.0098V12.7298C23.0009 12.2625 22.8382 11.8096 22.54 11.4498L18.6 6.71977C18.4121 6.49712 18.1778 6.31823 17.9135 6.19559C17.6492 6.07295 17.3613 6.00953 17.07 6.00977Z" fill="#E7ECEF"/>
<path d="M5.5 22C6.88071 22 8 20.8807 8 19.5C8 18.1193 6.88071 17 5.5 17C4.11929 17 3 18.1193 3 19.5C3 20.8807 4.11929 22 5.5 22Z" fill="#737A83"/>
<path d="M18.5 22C19.8807 22 21 20.8807 21 19.5C21 18.1193 19.8807 17 18.5 17C17.1193 17 16 18.1193 16 19.5C16 20.8807 17.1193 22 18.5 22Z" fill="#737A83"/>
<path d="M14 3C14.5304 3 15.0392 3.21074 15.4142 3.58582C15.7893 3.96089 16 4.46957 16 5V6H12V5C12 4.46957 12.2107 3.96089 12.5858 3.58582C12.9609 3.21074 13.4696 3 14 3Z" fill="#F57C75"/>
<path d="M11.0107 11H5.01074V13H11.0107V11Z" fill="#48AFBA"/>
<path d="M7.01074 9.00977V15.0098H9.01074V9.00977H7.01074Z" fill="#48AFBA"/>
<path d="M19.67 8.00977H16C15.7348 8.00977 15.4804 8.11512 15.2929 8.30266C15.1054 8.49019 15 8.74455 15 9.00977V11.7598C15 12.025 15.1054 12.2793 15.2929 12.4669C15.4804 12.6544 15.7348 12.7598 16 12.7598H23C23.0009 12.2925 22.8382 11.8396 22.54 11.4798L19.67 8.00977Z" fill="#737A83"/>
</svg>
