<svg width="24" height="24" viewBox="0 0 24 24" fill="none" xmlns="http://www.w3.org/2000/svg">
<path d="M20 7V20C20 20.5304 19.7893 21.0391 19.4142 21.4142C19.0391 21.7893 18.5304 22 18 22H6C5.46957 22 4.96086 21.7893 4.58578 21.4142C4.21071 21.0391 4 20.5304 4 20V4C4 3.46957 4.21071 2.96083 4.58578 2.58575C4.96086 2.21068 5.46957 2 6 2H15L20 7Z" fill="#9889F8"/>
<path d="M16 7H20L15 2V6C15 6.26522 15.1054 6.51956 15.2929 6.70709C15.4804 6.89463 15.7348 7 16 7Z" fill="#E3DFFE"/>
<path d="M16.5 11H7.5C7.22386 11 7 11.2239 7 11.5V12.5C7 12.7761 7.22386 13 7.5 13H16.5C16.7761 13 17 12.7761 17 12.5V11.5C17 11.2239 16.7761 11 16.5 11Z" fill="white"/>
<path d="M16.5 15H7.5C7.22386 15 7 15.2239 7 15.5V16.5C7 16.7761 7.22386 17 7.5 17H16.5C16.7761 17 17 16.7761 17 16.5V15.5C17 15.2239 16.7761 15 16.5 15Z" fill="white"/>
</svg>
