<svg width="24" height="24" viewBox="0 0 24 24" fill="none" xmlns="http://www.w3.org/2000/svg">
<path d="M12.36 1.75977H11.64C9.01865 1.76505 6.50615 2.8087 4.65256 4.66229C2.79897 6.51588 1.75529 9.02841 1.75 11.6498V12.3698C1.75529 14.9911 2.79897 17.5036 4.65256 19.3572C6.50615 21.2108 9.01865 22.2545 11.64 22.2598H12.36C13.6074 22.2562 14.8427 22.0152 16 21.5497V18.7897C15.8242 18.9001 15.6404 18.997 15.45 19.0798C14.4822 19.5299 13.4274 19.762 12.36 19.7598H11.64C9.68434 19.7545 7.81027 18.9753 6.4274 17.5924C5.04452 16.2095 4.26529 14.3354 4.26001 12.3798V11.6598C4.26001 9.69983 5.03861 7.82016 6.4245 6.43427C7.81039 5.04837 9.69007 4.26978 11.65 4.26978H12.37C13.3236 4.27997 14.2657 4.48026 15.1409 4.85901C16.0161 5.23775 16.807 5.78735 17.4673 6.47552C18.1275 7.1637 18.6439 7.97664 18.986 8.86682C19.3282 9.75701 19.4893 10.7066 19.46 11.6598V12.6598C19.4548 12.9659 19.3903 13.2681 19.27 13.5497C18.79 14.5497 18.4 14.5497 18.01 14.5497C17.5459 14.5497 17.1008 14.3654 16.7726 14.0372C16.4444 13.709 16.26 13.2639 16.26 12.7997V7.00977H13.76V7.55975C12.937 7.03944 11.9837 6.76214 11.01 6.75977C9.95445 6.76799 8.93603 7.15033 8.13586 7.83881C7.3357 8.52728 6.80566 9.47726 6.64001 10.5198C6.41957 11.3974 6.39487 12.3128 6.56769 13.2011C6.7405 14.0894 7.1066 14.9288 7.64001 15.6598C8.04154 16.1669 8.55428 16.5749 9.13861 16.8524C9.72294 17.1298 10.3632 17.2692 11.01 17.2598C11.7272 17.2582 12.4364 17.1091 13.0936 16.8218C13.7508 16.5345 14.3418 16.1152 14.83 15.5898C15.2261 16.0449 15.7145 16.4105 16.2628 16.6622C16.8111 16.914 17.4067 17.046 18.01 17.0497C18.768 17.0403 19.5059 16.805 20.1293 16.3739C20.7528 15.9428 21.2335 15.3355 21.51 14.6298C21.7749 14.0438 21.9243 13.4123 21.95 12.7698V11.6498C21.9833 10.3672 21.7602 9.0908 21.2938 7.89551C20.8274 6.70022 20.1271 5.61003 19.2339 4.6889C18.3407 3.76778 17.2727 3.03423 16.0923 2.53125C14.912 2.02827 13.6431 1.76599 12.36 1.75977ZM11 14.7598C10.7294 14.77 10.4603 14.7154 10.215 14.6006C9.96977 14.4858 9.75547 14.3141 9.59 14.0997C9.29494 13.6654 9.09516 13.1736 9.00381 12.6565C8.91247 12.1394 8.93161 11.6089 9.06 11.0997C9.11192 10.6134 9.33599 10.1618 9.69174 9.82617C10.0475 9.49059 10.5115 9.29325 11 9.26978C11.7293 9.26978 12.4288 9.55947 12.9445 10.0752C13.4603 10.5909 13.75 11.2904 13.75 12.0198C13.7474 12.7474 13.4565 13.4443 12.941 13.9578C12.4256 14.4714 11.7276 14.7598 11 14.7598Z" fill="#6B758F"/>
</svg>
