<svg width="24" height="24" viewBox="0 0 24 24" fill="none" xmlns="http://www.w3.org/2000/svg">
<path d="M6 15H3C2.44772 15 2 15.4477 2 16V20C2 20.5523 2.44772 21 3 21H6C6.55228 21 7 20.5523 7 20V16C7 15.4477 6.55228 15 6 15Z" fill="#48AFBA"/>
<path d="M13 9H10C9.44772 9 9 9.44772 9 10V20C9 20.5523 9.44772 21 10 21H13C13.5523 21 14 20.5523 14 20V10C14 9.44772 13.5523 9 13 9Z" fill="#48AFBA"/>
<path d="M20 3H17C16.4477 3 16 3.44772 16 4V20C16 20.5523 16.4477 21 17 21H20C20.5523 21 21 20.5523 21 20V4C21 3.44772 20.5523 3 20 3Z" fill="#48AFBA"/>
</svg>
