<svg width="24" height="24" viewBox="0 0 24 24" fill="none" xmlns="http://www.w3.org/2000/svg">
<g clip-path="url(#clip0_397_5537)">
<mask id="mask0_397_5537" style="mask-type:luminance" maskUnits="userSpaceOnUse" x="0" y="0" width="24" height="24">
<path d="M24 0H0V24H24V0Z" fill="white"/>
</mask>
<g mask="url(#mask0_397_5537)">
<path d="M20 9.5C20.1326 9.5 20.2597 9.55268 20.3535 9.64645C20.4473 9.74021 20.5 9.86739 20.5 10V17C20.5 17.1326 20.4473 17.2598 20.3535 17.3536C20.2597 17.4473 20.1326 17.5 20 17.5H18.46V9.5H19.96M19.96 7H15.96V20H19.96C20.7556 20 21.5187 19.6839 22.0813 19.1213C22.6439 18.5587 22.96 17.7956 22.96 17V10C22.96 9.20435 22.6439 8.44129 22.0813 7.87868C21.5187 7.31607 20.7556 7 19.96 7Z" fill="#FFC738"/>
<path d="M5 20.11C5.02815 20.6211 5.25123 21.102 5.6233 21.4536C5.99536 21.8052 6.48809 22.0008 7 22H16C16.5119 22.0008 17.0046 21.8052 17.3767 21.4536C17.7488 21.102 17.9718 20.6211 18 20.11V5H5V20.11Z" fill="#FFC738"/>
<path d="M16 1H7C6.46957 1 5.96086 1.21071 5.58578 1.58579C5.21071 1.96086 5 2.46957 5 3V5H18V3C18 2.46957 17.7893 1.96086 17.4142 1.58579C17.0391 1.21071 16.5304 1 16 1Z" fill="#FBF3DF"/>
</g>
</g>
<defs>
<clipPath id="clip0_397_5537">
<rect width="24" height="24" fill="white"/>
</clipPath>
</defs>
</svg>
