<svg width="24" height="24" viewBox="0 0 24 24" fill="none" xmlns="http://www.w3.org/2000/svg">
<path d="M5.66016 18.3401L18.4202 5.58008" stroke="#F57C75" stroke-width="2.5" stroke-miterlimit="10"/>
<path d="M12 4.5C13.9883 4.50265 15.8944 5.29368 17.3004 6.69963C18.7063 8.10558 19.4974 10.0117 19.5 12C19.5 13.9891 18.7098 15.8968 17.3033 17.3033C15.8968 18.7098 13.9891 19.5 12 19.5C10.0109 19.5 8.10322 18.7098 6.6967 17.3033C5.29018 15.8968 4.5 13.9891 4.5 12C4.50265 10.0117 5.29367 8.10558 6.69962 6.69963C8.10557 5.29368 10.0117 4.50265 12 4.5ZM12 2C10.6868 2 9.38642 2.25867 8.17317 2.76122C6.95991 3.26376 5.85752 4.00035 4.92893 4.92894C3.05357 6.8043 2 9.34784 2 12C2 14.6522 3.05357 17.1957 4.92893 19.0711C5.85752 19.9997 6.95991 20.7363 8.17317 21.2388C9.38642 21.7413 10.6868 22 12 22C14.6522 22 17.1957 20.9464 19.0711 19.0711C20.9464 17.1957 22 14.6522 22 12C22 9.34784 20.9464 6.8043 19.0711 4.92894C17.1957 3.05358 14.6522 2 12 2Z" fill="#F57C75"/>
</svg>
