<svg width="24" height="24" viewBox="0 0 24 24" fill="none" xmlns="http://www.w3.org/2000/svg">
<path d="M12.001 14.9995C13.6578 14.9995 15.001 13.6563 15.001 11.9995C15.001 10.3426 13.6578 8.99951 12.001 8.99951C10.3441 8.99951 9.00098 10.3426 9.00098 11.9995C9.00098 13.6563 10.3441 14.9995 12.001 14.9995Z" fill="#F57C75"/>
<path fill-rule="evenodd" clip-rule="evenodd" d="M8.46948 8.45514C6.51716 10.4158 6.51932 13.5837 8.46797 15.5324L7.05376 16.9466C4.3224 14.2152 4.32456 9.78329 7.05225 7.04395L8.46948 8.45514Z" fill="#F57C75"/>
<path fill-rule="evenodd" clip-rule="evenodd" d="M15.542 15.5443C17.4943 13.5836 17.4921 10.4156 15.5435 8.46695L16.9577 7.05273C19.6891 9.78409 19.6869 14.2161 16.9592 16.9555L15.542 15.5443Z" fill="#F57C75"/>
<path fill-rule="evenodd" clip-rule="evenodd" d="M5.63675 5.6377C2.11898 9.14647 2.11768 14.8426 5.63765 18.3626L4.22344 19.7768C-0.0765839 15.4768 -0.0778875 8.51291 4.22435 4.22168L5.63675 5.6377Z" fill="#F57C75"/>
<path fill-rule="evenodd" clip-rule="evenodd" d="M18.3642 18.3618C21.882 14.853 21.8833 9.15685 18.3633 5.63687L19.7775 4.22266C24.0775 8.52268 24.0788 15.4866 19.7766 19.7778L18.3642 18.3618Z" fill="#F57C75"/>
</svg>
