<svg width="24" height="24" viewBox="0 0 24 24" fill="none" xmlns="http://www.w3.org/2000/svg">
<path d="M2 18C2 18.5304 2.21074 19.0391 2.58582 19.4142C2.96089 19.7893 3.46957 20 4 20H20C20.5304 20 21.0392 19.7893 21.4142 19.4142C21.7893 19.0391 22 18.5304 22 18V8H2V18Z" fill="#E7ECEF"/>
<path d="M19.9996 3H3.99957C3.40568 3.07282 2.86389 3.37521 2.49011 3.84244C2.11633 4.30966 1.94025 4.90461 1.99957 5.5V8H21.9996V5.5C22.0563 4.90512 21.8793 4.31152 21.506 3.84489C21.1327 3.37827 20.5924 3.07525 19.9996 3Z" fill="#737A83"/>
<path d="M16 4.5H15C14.7239 4.5 14.5 4.72386 14.5 5V6C14.5 6.27614 14.7239 6.5 15 6.5H16C16.2761 6.5 16.5 6.27614 16.5 6V5C16.5 4.72386 16.2761 4.5 16 4.5Z" fill="#FFE457"/>
<path d="M12.5 4.5H11.5C11.2239 4.5 11 4.72386 11 5V6C11 6.27614 11.2239 6.5 11.5 6.5H12.5C12.7761 6.5 13 6.27614 13 6V5C13 4.72386 12.7761 4.5 12.5 4.5Z" fill="#7AD7B5"/>
<path d="M19.5 4.5H18.5C18.2239 4.5 18 4.72386 18 5V6C18 6.27614 18.2239 6.5 18.5 6.5H19.5C19.7761 6.5 20 6.27614 20 6V5C20 4.72386 19.7761 4.5 19.5 4.5Z" fill="#FFA36F"/>
</svg>
