<svg width="24" height="24" viewBox="0 0 24 24" fill="none" xmlns="http://www.w3.org/2000/svg">
<path d="M3 3H13C13.2652 3 13.5196 3.10536 13.7071 3.29289C13.8946 3.48043 14 3.73478 14 4V22H2V4C2 3.73478 2.10537 3.48043 2.29291 3.29289C2.48044 3.10536 2.73478 3 3 3Z" fill="#737A83"/>
<path d="M15 7H21C21.2652 7 21.5196 7.10536 21.7071 7.29289C21.8946 7.48043 22 7.73478 22 8V22H14V8C14 7.73478 14.1054 7.48043 14.2929 7.29289C14.4804 7.10536 14.7348 7 15 7Z" fill="#C7CED5"/>
<path d="M6.75 5.75H5.25C4.97386 5.75 4.75 5.97386 4.75 6.25V7.75C4.75 8.02614 4.97386 8.25 5.25 8.25H6.75C7.02614 8.25 7.25 8.02614 7.25 7.75V6.25C7.25 5.97386 7.02614 5.75 6.75 5.75Z" fill="white"/>
<path d="M10.75 5.75H9.25C8.97386 5.75 8.75 5.97386 8.75 6.25V7.75C8.75 8.02614 8.97386 8.25 9.25 8.25H10.75C11.0261 8.25 11.25 8.02614 11.25 7.75V6.25C11.25 5.97386 11.0261 5.75 10.75 5.75Z" fill="white"/>
<path d="M6.75 9.75H5.25C4.97386 9.75 4.75 9.97386 4.75 10.25V11.75C4.75 12.0261 4.97386 12.25 5.25 12.25H6.75C7.02614 12.25 7.25 12.0261 7.25 11.75V10.25C7.25 9.97386 7.02614 9.75 6.75 9.75Z" fill="white"/>
<path d="M10.75 9.75H9.25C8.97386 9.75 8.75 9.97386 8.75 10.25V11.75C8.75 12.0261 8.97386 12.25 9.25 12.25H10.75C11.0261 12.25 11.25 12.0261 11.25 11.75V10.25C11.25 9.97386 11.0261 9.75 10.75 9.75Z" fill="white"/>
<path d="M6.75 13.75H5.25C4.97386 13.75 4.75 13.9739 4.75 14.25V15.75C4.75 16.0261 4.97386 16.25 5.25 16.25H6.75C7.02614 16.25 7.25 16.0261 7.25 15.75V14.25C7.25 13.9739 7.02614 13.75 6.75 13.75Z" fill="white"/>
<path d="M10.75 13.75H9.25C8.97386 13.75 8.75 13.9739 8.75 14.25V15.75C8.75 16.0261 8.97386 16.25 9.25 16.25H10.75C11.0261 16.25 11.25 16.0261 11.25 15.75V14.25C11.25 13.9739 11.0261 13.75 10.75 13.75Z" fill="white"/>
</svg>
