<svg width="24" height="24" viewBox="0 0 24 24" fill="none" xmlns="http://www.w3.org/2000/svg">
<path d="M7 2H17C18.0609 2 19.0783 2.42142 19.8284 3.17157C20.5786 3.92172 21 4.93913 21 6V19C21 19.2652 20.8946 19.5196 20.7071 19.7071C20.5196 19.8946 20.2652 20 20 20H4C3.73478 20 3.48043 19.8946 3.29289 19.7071C3.10536 19.5196 3 19.2652 3 19V6C3 4.93913 3.42142 3.92172 4.17157 3.17157C4.92172 2.42142 5.93913 2 7 2Z" fill="#84CA00"/>
<path d="M7 5H17C17.5304 5 18.0391 5.21074 18.4142 5.58582C18.7893 5.96089 19 6.46957 19 7V12C19 12.2652 18.8946 12.5196 18.7071 12.7071C18.5196 12.8946 18.2652 13 18 13H6C5.73478 13 5.48043 12.8946 5.29289 12.7071C5.10536 12.5196 5 12.2652 5 12V7C5 6.46957 5.21071 5.96089 5.58578 5.58582C5.96086 5.21074 6.46957 5 7 5Z" fill="white"/>
<path d="M17.5 18C18.3284 18 19 17.3284 19 16.5C19 15.6716 18.3284 15 17.5 15C16.6716 15 16 15.6716 16 16.5C16 17.3284 16.6716 18 17.5 18Z" fill="white"/>
<path d="M6.5 18C7.32843 18 8 17.3284 8 16.5C8 15.6716 7.32843 15 6.5 15C5.67157 15 5 15.6716 5 16.5C5 17.3284 5.67157 18 6.5 18Z" fill="white"/>
<path d="M4 20H8V21C8 21.2652 7.89464 21.5196 7.70711 21.7071C7.51957 21.8946 7.26522 22 7 22H5C4.73478 22 4.48043 21.8946 4.29289 21.7071C4.10536 21.5196 4 21.2652 4 21V20Z" fill="#737A83"/>
<path d="M16 20H20V21C20 21.2652 19.8946 21.5196 19.7071 21.7071C19.5196 21.8946 19.2652 22 19 22H17C16.7348 22 16.4804 21.8946 16.2929 21.7071C16.1054 21.5196 16 21.2652 16 21V20Z" fill="#737A83"/>
</svg>
