<svg width="24" height="24" viewBox="0 0 24 24" fill="none" xmlns="http://www.w3.org/2000/svg">
<path d="M18 2H6C4.89543 2 4 2.89543 4 4V20C4 21.1046 4.89543 22 6 22H18C19.1046 22 20 21.1046 20 20V4C20 2.89543 19.1046 2 18 2Z" fill="#737A83"/>
<path d="M16.5 5H7.5C7.22386 5 7 5.22386 7 5.5V7.5C7 7.77614 7.22386 8 7.5 8H16.5C16.7761 8 17 7.77614 17 7.5V5.5C17 5.22386 16.7761 5 16.5 5Z" fill="#E7ECEF"/>
<path d="M9.25 9.75H7.75C7.47386 9.75 7.25 9.97386 7.25 10.25V11.75C7.25 12.0261 7.47386 12.25 7.75 12.25H9.25C9.52614 12.25 9.75 12.0261 9.75 11.75V10.25C9.75 9.97386 9.52614 9.75 9.25 9.75Z" fill="white"/>
<path d="M12.75 9.75H11.25C10.9739 9.75 10.75 9.97386 10.75 10.25V11.75C10.75 12.0261 10.9739 12.25 11.25 12.25H12.75C13.0261 12.25 13.25 12.0261 13.25 11.75V10.25C13.25 9.97386 13.0261 9.75 12.75 9.75Z" fill="white"/>
<path d="M16.2598 9.75H14.7598C14.4836 9.75 14.2598 9.97386 14.2598 10.25V11.75C14.2598 12.0261 14.4836 12.25 14.7598 12.25H16.2598C16.5359 12.25 16.7598 12.0261 16.7598 11.75V10.25C16.7598 9.97386 16.5359 9.75 16.2598 9.75Z" fill="#FFBD81"/>
<path d="M9.25 13.25H7.75C7.47386 13.25 7.25 13.4739 7.25 13.75V15.25C7.25 15.5261 7.47386 15.75 7.75 15.75H9.25C9.52614 15.75 9.75 15.5261 9.75 15.25V13.75C9.75 13.4739 9.52614 13.25 9.25 13.25Z" fill="white"/>
<path d="M12.75 13.25H11.25C10.9739 13.25 10.75 13.4739 10.75 13.75V15.25C10.75 15.5261 10.9739 15.75 11.25 15.75H12.75C13.0261 15.75 13.25 15.5261 13.25 15.25V13.75C13.25 13.4739 13.0261 13.25 12.75 13.25Z" fill="white"/>
<path d="M16.2598 13.25H14.7598C14.4836 13.25 14.2598 13.4739 14.2598 13.75V15.25C14.2598 15.5261 14.4836 15.75 14.7598 15.75H16.2598C16.5359 15.75 16.7598 15.5261 16.7598 15.25V13.75C16.7598 13.4739 16.5359 13.25 16.2598 13.25Z" fill="#FFBD81"/>
<path d="M9.25 16.75H7.75C7.47386 16.75 7.25 16.9739 7.25 17.25V18.75C7.25 19.0261 7.47386 19.25 7.75 19.25H9.25C9.52614 19.25 9.75 19.0261 9.75 18.75V17.25C9.75 16.9739 9.52614 16.75 9.25 16.75Z" fill="white"/>
<path d="M12.75 16.75H11.25C10.9739 16.75 10.75 16.9739 10.75 17.25V18.75C10.75 19.0261 10.9739 19.25 11.25 19.25H12.75C13.0261 19.25 13.25 19.0261 13.25 18.75V17.25C13.25 16.9739 13.0261 16.75 12.75 16.75Z" fill="white"/>
<path d="M16.2598 16.75H14.7598C14.4836 16.75 14.2598 16.9739 14.2598 17.25V18.75C14.2598 19.0261 14.4836 19.25 14.7598 19.25H16.2598C16.5359 19.25 16.7598 19.0261 16.7598 18.75V17.25C16.7598 16.9739 16.5359 16.75 16.2598 16.75Z" fill="#FFBD81"/>
</svg>
