<svg width="24" height="24" viewBox="0 0 24 24" fill="none" xmlns="http://www.w3.org/2000/svg">
<path d="M19.5 4.01953H4.5C3.39543 4.01953 2.5 4.91496 2.5 6.01953V19.0195C2.5 20.1241 3.39543 21.0195 4.5 21.0195H19.5C20.6046 21.0195 21.5 20.1241 21.5 19.0195V6.01953C21.5 4.91496 20.6046 4.01953 19.5 4.01953Z" fill="#F4868F"/>
<path d="M8.48001 3.01953H7.5C7.22386 3.01953 7 3.24339 7 3.51953V5.51953C7 5.79567 7.22386 6.01953 7.5 6.01953H8.48001C8.75615 6.01953 8.98001 5.79567 8.98001 5.51953V3.51953C8.98001 3.24339 8.75615 3.01953 8.48001 3.01953Z" fill="#707070"/>
<path d="M8.74023 9.5H7.24023C6.96409 9.5 6.74023 9.72386 6.74023 10V11.5C6.74023 11.7761 6.96409 12 7.24023 12H8.74023C9.01638 12 9.24023 11.7761 9.24023 11.5V10C9.24023 9.72386 9.01638 9.5 8.74023 9.5Z" fill="white"/>
<path d="M12.75 9.5H11.25C10.9739 9.5 10.75 9.72386 10.75 10V11.5C10.75 11.7761 10.9739 12 11.25 12H12.75C13.0261 12 13.25 11.7761 13.25 11.5V10C13.25 9.72386 13.0261 9.5 12.75 9.5Z" fill="white"/>
<path d="M16.7598 9.5H15.2598C14.9836 9.5 14.7598 9.72386 14.7598 10V11.5C14.7598 11.7761 14.9836 12 15.2598 12H16.7598C17.0359 12 17.2598 11.7761 17.2598 11.5V10C17.2598 9.72386 17.0359 9.5 16.7598 9.5Z" fill="white"/>
<path d="M16.5 3.01953H15.5C15.2239 3.01953 15 3.24339 15 3.51953V5.51953C15 5.79567 15.2239 6.01953 15.5 6.01953H16.5C16.7761 6.01953 17 5.79567 17 5.51953V3.51953C17 3.24339 16.7761 3.01953 16.5 3.01953Z" fill="#707070"/>
<path d="M8.74023 14H7.24023C6.96409 14 6.74023 14.2239 6.74023 14.5V16C6.74023 16.2761 6.96409 16.5 7.24023 16.5H8.74023C9.01638 16.5 9.24023 16.2761 9.24023 16V14.5C9.24023 14.2239 9.01638 14 8.74023 14Z" fill="white"/>
<path d="M12.75 14H11.25C10.9739 14 10.75 14.2239 10.75 14.5V16C10.75 16.2761 10.9739 16.5 11.25 16.5H12.75C13.0261 16.5 13.25 16.2761 13.25 16V14.5C13.25 14.2239 13.0261 14 12.75 14Z" fill="white"/>
<path d="M16.7598 14H15.2598C14.9836 14 14.7598 14.2239 14.7598 14.5V16C14.7598 16.2761 14.9836 16.5 15.2598 16.5H16.7598C17.0359 16.5 17.2598 16.2761 17.2598 16V14.5C17.2598 14.2239 17.0359 14 16.7598 14Z" fill="white"/>
</svg>
