<svg width="24" height="24" viewBox="0 0 24 24" fill="none" xmlns="http://www.w3.org/2000/svg">
<path d="M10.4689 7.86983L8.60888 9.73982C9.36939 10.8431 10.2297 11.8741 11.1789 12.8198C12.1281 13.7692 13.1625 14.6295 14.2689 15.3898L16.1289 13.5298C16.3163 13.3436 16.5697 13.239 16.8339 13.239C17.0981 13.239 17.3516 13.3436 17.5389 13.5298L21.0789 17.0698C21.2652 17.2572 21.3697 17.5106 21.3697 17.7748C21.3697 18.039 21.2652 18.2925 21.0789 18.4798L20.3189 19.2398L18.7689 20.7898C18.4925 21.0648 18.1416 21.2529 17.7597 21.3311C17.3777 21.4092 16.9812 21.374 16.6189 21.2298C15.7655 20.8657 14.9311 20.4585 14.1189 20.0098C12.0036 18.8298 10.0618 17.3625 8.34888 15.6498C6.63463 13.9383 5.16719 11.9963 3.98888 9.87982C3.53828 9.06865 3.13104 8.23415 2.76889 7.37982C2.62592 7.01663 2.59234 6.61955 2.6723 6.23752C2.75227 5.85548 2.94226 5.50519 3.21888 5.22983L4.75888 3.68982L5.51889 2.91982C5.61185 2.82609 5.72244 2.7517 5.8443 2.70093C5.96616 2.65016 6.09687 2.62402 6.22888 2.62402C6.3609 2.62402 6.4916 2.65016 6.61346 2.70093C6.73532 2.7517 6.84592 2.82609 6.93888 2.91982L10.4689 6.45982C10.6552 6.64719 10.7597 6.90064 10.7597 7.16483C10.7597 7.42901 10.6552 7.68246 10.4689 7.86983Z" fill="#48AFBA"/>
</svg>
