<svg width="24" height="24" viewBox="0 0 24 24" fill="none" xmlns="http://www.w3.org/2000/svg">
<path d="M4 11H20C20.5304 11 21.0391 11.2107 21.4142 11.5858C21.7893 11.9609 22 12.4696 22 13V18C22 18.2652 21.8946 18.5196 21.7071 18.7071C21.5196 18.8946 21.2652 19 21 19H3C2.73478 19 2.48043 18.8946 2.29289 18.7071C2.10536 18.5196 2 18.2652 2 18V13C2 12.4696 2.21071 11.9609 2.58579 11.5858C2.96086 11.2107 3.46957 11 4 11Z" fill="#5096FF"/>
<path d="M8 4H16C17.0609 4 18.0783 4.42142 18.8284 5.17157C19.5786 5.92172 20 6.93913 20 8V11H4V8C4 6.93913 4.42143 5.92172 5.17157 5.17157C5.92172 4.42142 6.93913 4 8 4Z" fill="#5096FF"/>
<path d="M8 6H16C16.5304 6 17.0391 6.21074 17.4142 6.58582C17.7893 6.96089 18 7.46957 18 8V11H6V8C6 7.46957 6.21071 6.96089 6.58579 6.58582C6.96086 6.21074 7.46957 6 8 6Z" fill="white"/>
<path d="M3 19H7V20C7 20.2652 6.89464 20.5196 6.70711 20.7071C6.51957 20.8946 6.26522 21 6 21H4C3.73478 21 3.48043 20.8946 3.29289 20.7071C3.10536 20.5196 3 20.2652 3 20V19Z" fill="#737A83"/>
<path d="M17 19H21V20C21 20.2652 20.8946 20.5196 20.7071 20.7071C20.5196 20.8946 20.2652 21 20 21H18C17.7348 21 17.4804 20.8946 17.2929 20.7071C17.1054 20.5196 17 20.2652 17 20V19Z" fill="#737A83"/>
<path d="M7 14H5C4.44772 14 4 14.4477 4 15C4 15.5523 4.44772 16 5 16H7C7.55228 16 8 15.5523 8 15C8 14.4477 7.55228 14 7 14Z" fill="white"/>
<path d="M19 14H17C16.4477 14 16 14.4477 16 15C16 15.5523 16.4477 16 17 16H19C19.5523 16 20 15.5523 20 15C20 14.4477 19.5523 14 19 14Z" fill="white"/>
</svg>
