<svg width="24" height="24" viewBox="0 0 24 24" fill="none" xmlns="http://www.w3.org/2000/svg">
<path d="M22 12C22 6.47715 17.5228 2 12 2C6.47715 2 2 6.47715 2 12C2 17.5228 6.47715 22 12 22C17.5228 22 22 17.5228 22 12Z" fill="#FFC738"/>
<path d="M12.702 6.5H11.2976C11.1616 6.49978 11.027 6.52424 10.9021 6.57186C10.7772 6.61947 10.6646 6.68924 10.5713 6.77687C10.478 6.86449 10.406 6.96812 10.3596 7.08136C10.3132 7.1946 10.2934 7.31506 10.3016 7.43531L10.7398 14H13.2498L13.698 7.43531C13.7062 7.31506 13.6864 7.1946 13.64 7.08136C13.5937 6.96812 13.5216 6.86449 13.4283 6.77687C13.335 6.68924 13.2224 6.61947 13.0975 6.57186C12.9726 6.52424 12.838 6.49978 12.702 6.5Z" fill="white"/>
<path d="M12 18.3604C12.8284 18.3604 13.5 17.6888 13.5 16.8604C13.5 16.0319 12.8284 15.3604 12 15.3604C11.1716 15.3604 10.5 16.0319 10.5 16.8604C10.5 17.6888 11.1716 18.3604 12 18.3604Z" fill="white"/>
</svg>
