<svg width="24" height="24" viewBox="0 0 24 24" fill="none" xmlns="http://www.w3.org/2000/svg">
<path fill-rule="evenodd" clip-rule="evenodd" d="M11 21V14H13V21H11Z" fill="#C7CED5"/>
<path fill-rule="evenodd" clip-rule="evenodd" d="M12.0098 17C10.9489 17 9.93148 17.4214 9.18133 18.1716C8.43119 18.9217 8.00977 19.9391 8.00977 21H6.00977C6.00977 19.4087 6.6419 17.8826 7.76712 16.7574C8.89234 15.6322 10.4185 15 12.0098 15C13.6011 15 15.1272 15.6322 16.2524 16.7574C17.3776 17.8826 18.0098 19.4087 18.0098 21H16.0098C16.0098 19.9391 15.5883 18.9217 14.8382 18.1716C14.088 17.4214 13.0706 17 12.0098 17Z" fill="#C7CED5"/>
<path d="M6 1H14C14.5304 1 15.0392 1.21071 15.4142 1.58578C15.7893 1.96086 16 2.46957 16 3V11H4V3C4 2.46957 4.21074 1.96086 4.58582 1.58578C4.96089 1.21071 5.46957 1 6 1Z" fill="#737A83"/>
<path d="M4 10H19C19.5304 10 20.0392 10.2107 20.4142 10.5858C20.7893 10.9609 21 11.4696 21 12C21 12.5304 20.7893 13.0391 20.4142 13.4142C20.0392 13.7893 19.5304 14 19 14H6C5.46957 14 4.96089 13.7893 4.58582 13.4142C4.21074 13.0391 4 12.5304 4 12V10Z" fill="#737A83"/>
<path d="M12 22.5C12.8284 22.5 13.5 21.8284 13.5 21C13.5 20.1716 12.8284 19.5 12 19.5C11.1716 19.5 10.5 20.1716 10.5 21C10.5 21.8284 11.1716 22.5 12 22.5Z" fill="#737A83"/>
<path d="M7.00977 22.5C7.83819 22.5 8.50977 21.8284 8.50977 21C8.50977 20.1716 7.83819 19.5 7.00977 19.5C6.18134 19.5 5.50977 20.1716 5.50977 21C5.50977 21.8284 6.18134 22.5 7.00977 22.5Z" fill="#737A83"/>
<path d="M17 22.5C17.8284 22.5 18.5 21.8284 18.5 21C18.5 20.1716 17.8284 19.5 17 19.5C16.1716 19.5 15.5 20.1716 15.5 21C15.5 21.8284 16.1716 22.5 17 22.5Z" fill="#737A83"/>
</svg>
