<svg width="24" height="24" viewBox="0 0 24 24" fill="none" xmlns="http://www.w3.org/2000/svg">
<path d="M17.0098 6H7.00977C4.80063 6 3.00977 7.79086 3.00977 10V17C3.00977 19.2091 4.80063 21 7.00977 21H17.0098C19.2189 21 21.0098 19.2091 21.0098 17V10C21.0098 7.79086 19.2189 6 17.0098 6Z" fill="#737A83"/>
<path d="M12.0098 2C12.3413 2 12.6593 2.1317 12.8937 2.36612C13.1281 2.60054 13.2598 2.91848 13.2598 3.25V6H10.7598V3.25C10.7598 2.91848 10.8915 2.60054 11.1259 2.36612C11.3603 2.1317 11.6782 2 12.0098 2Z" fill="#C7CED5"/>
<path d="M10.0098 12C10.0098 11.1716 9.33819 10.5 8.50977 10.5C7.68134 10.5 7.00977 11.1716 7.00977 12V14C7.00977 14.8284 7.68134 15.5 8.50977 15.5C9.33819 15.5 10.0098 14.8284 10.0098 14V12Z" fill="#B3EAED"/>
<path d="M17.0098 12C17.0098 11.1716 16.3382 10.5 15.5098 10.5C14.6813 10.5 14.0098 11.1716 14.0098 12V14C14.0098 14.8284 14.6813 15.5 15.5098 15.5C16.3382 15.5 17.0098 14.8284 17.0098 14V12Z" fill="#B3EAED"/>
<path d="M3.00977 10V16C2.47933 16 1.97065 15.7893 1.59558 15.4142C1.22051 15.0391 1.00977 14.5304 1.00977 14V12C1.00977 11.4696 1.22051 10.9609 1.59558 10.5858C1.97065 10.2107 2.47933 10 3.00977 10Z" fill="#C7CED5"/>
<path d="M21.0098 10C21.5402 10 22.0489 10.2107 22.424 10.5858C22.7991 10.9609 23.0098 11.4696 23.0098 12V14C23.0098 14.5304 22.7991 15.0391 22.424 15.4142C22.0489 15.7893 21.5402 16 21.0098 16V10Z" fill="#C7CED5"/>
</svg>
