<svg width="24" height="24" viewBox="0 0 24 24" fill="none" xmlns="http://www.w3.org/2000/svg">
<path d="M14.49 12.0098H22C22 9.3576 20.9464 6.81408 19.0711 4.93872C17.1957 3.06336 14.6522 2.00977 12 2.00977V9.50977C12.3278 9.50976 12.6524 9.5745 12.9552 9.70026C13.258 9.82602 13.5329 10.0103 13.7643 10.2426C13.9956 10.4749 14.1788 10.7506 14.3033 11.0538C14.4279 11.3571 14.4913 11.6819 14.49 12.0098Z" fill="#5096FF"/>
<path d="M11.9902 14.5098C11.3272 14.5098 10.6913 14.2464 10.2225 13.7775C9.75363 13.3087 9.49023 12.6728 9.49023 12.0098C9.49023 11.3467 9.75363 10.7108 10.2225 10.242C10.6913 9.77315 11.3272 9.50977 11.9902 9.50977V2.00977C9.33807 2.00977 6.79452 3.06336 4.91916 4.93872C3.0438 6.81408 1.99023 9.3576 1.99023 12.0098C1.99023 14.6619 3.0438 17.2054 4.91916 19.0808C6.79452 20.9562 9.33807 22.0098 11.9902 22.0098C14.6422 22.0092 17.1853 20.9553 19.0602 19.0798L13.7502 13.7698C13.5213 14.0046 13.2476 14.1911 12.9453 14.3182C12.643 14.4454 12.3182 14.5105 11.9902 14.5098Z" fill="#CBDFFF"/>
<path d="M14.4908 12.0098C14.4911 12.3368 14.4268 12.6606 14.3015 12.9626C14.1762 13.2647 13.9924 13.539 13.7607 13.7698L19.0707 19.0798C20.9462 17.2048 22.0002 14.6617 22.0007 12.0098H14.4908Z" fill="#5585CD"/>
</svg>
