<svg width="24" height="24" viewBox="0 0 24 24" fill="none" xmlns="http://www.w3.org/2000/svg">
<g clip-path="url(#clip0_397_5656)">
<mask id="mask0_397_5656" style="mask-type:luminance" maskUnits="userSpaceOnUse" x="0" y="0" width="24" height="24">
<path d="M24 0H0V24H24V0Z" fill="white"/>
</mask>
<g mask="url(#mask0_397_5656)">
<path d="M7.96973 21.8903C6.23973 21.8903 4.50973 21.2303 3.19973 19.9203C1.88973 18.6103 1.21973 16.9503 1.21973 15.1503C1.21973 13.3503 1.91973 11.6503 3.19973 10.3803L9.90973 3.65031L11.6798 5.42031L4.95973 12.1403C4.15973 12.9403 3.71973 14.0103 3.71973 15.1503C3.71973 16.2903 4.15973 17.3503 4.95973 18.1603C6.61973 19.8203 9.30973 19.8203 10.9698 18.1603L19.3098 9.82031C20.2698 8.86031 20.2698 7.30031 19.3098 6.35031C18.3498 5.39031 16.7898 5.39031 15.8298 6.35031L7.83973 14.3403C7.69973 14.4803 7.61973 14.6703 7.61973 14.8703C7.61973 15.0703 7.69973 15.2603 7.83973 15.4003C8.12973 15.6903 8.60973 15.6903 8.89973 15.4003L16.6798 7.62031L18.4498 9.39031L10.6698 17.1703C9.39973 18.4403 7.33973 18.4403 6.06973 17.1703C5.45973 16.5603 5.11973 15.7403 5.11973 14.8703C5.11973 14.0003 5.45973 13.1903 6.06973 12.5703L14.0598 4.58031C15.9898 2.65031 19.1398 2.65031 21.0698 4.58031C22.9998 6.51031 22.9998 9.66031 21.0698 11.5903L12.7298 19.9303C11.4098 21.2503 9.68973 21.9003 7.95973 21.9003L7.96973 21.8903Z" fill="#C7CED5"/>
</g>
</g>
<defs>
<clipPath id="clip0_397_5656">
<rect width="24" height="24" fill="white"/>
</clipPath>
</defs>
</svg>
