<svg width="24" height="24" viewBox="0 0 24 24" fill="none" xmlns="http://www.w3.org/2000/svg">
<path d="M15 10H18C19.0609 10 20.0783 10.4214 20.8284 11.1716C21.5786 11.9217 22 12.9391 22 14V20C22 20.2652 21.8946 20.5196 21.7071 20.7071C21.5196 20.8946 21.2652 21 21 21H12C11.7348 21 11.4804 20.8946 11.2929 20.7071C11.1054 20.5196 11 20.2652 11 20V14C11 12.9391 11.4214 11.9217 12.1716 11.1716C12.9217 10.4214 13.9391 10 15 10Z" fill="#C7CED5"/>
<path d="M6 10H9C10.0609 10 11.0783 10.4214 11.8284 11.1716C12.5786 11.9217 13 12.9391 13 14V20C13 20.2652 12.8946 20.5196 12.7071 20.7071C12.5196 20.8946 12.2652 21 12 21H3C2.73478 21 2.48043 20.8946 2.29289 20.7071C2.10536 20.5196 2 20.2652 2 20V14C2 12.9391 2.42142 11.9217 3.17157 11.1716C3.92172 10.4214 4.93913 10 6 10Z" fill="#6B758F"/>
<path d="M7.5 9C9.15685 9 10.5 7.65685 10.5 6C10.5 4.34315 9.15685 3 7.5 3C5.84315 3 4.5 4.34315 4.5 6C4.5 7.65685 5.84315 9 7.5 9Z" fill="#6B758F"/>
<path d="M16.5 9C18.1569 9 19.5 7.65685 19.5 6C19.5 4.34315 18.1569 3 16.5 3C14.8431 3 13.5 4.34315 13.5 6C13.5 7.65685 14.8431 9 16.5 9Z" fill="#C7CED5"/>
</svg>
