<svg width="24" height="24" viewBox="0 0 24 24" fill="none" xmlns="http://www.w3.org/2000/svg">
<path d="M3.94118 8H18.0588C18.5765 8 19 8.45 19 9V17C19 19.21 17.3153 21 15.2353 21H6.76471C4.68471 21 3 19.21 3 17V9C3 8.45 3.42353 8 3.94118 8Z" fill="#C7C7C7"/>
<path d="M18.0004 10C19.6504 10 21.0004 11.35 21.0004 13C21.0004 14.65 19.6504 16 18.0004 16H16.1104V10H18.0004ZM18.0004 8H14.1104V18H18.0004C20.7604 18 23.0004 15.76 23.0004 13C23.0004 10.24 20.7604 8 18.0004 8Z" fill="#C7C7C7"/>
<path d="M16 3C16 2.44772 15.5523 2 15 2C14.4477 2 14 2.44772 14 3V5C14 5.55228 14.4477 6 15 6C15.5523 6 16 5.55228 16 5V3Z" fill="#9C9188"/>
<path d="M12 3C12 2.44772 11.5523 2 11 2C10.4477 2 10 2.44772 10 3V5C10 5.55228 10.4477 6 11 6C11.5523 6 12 5.55228 12 5V3Z" fill="#9C9188"/>
<path d="M8 3C8 2.44772 7.55228 2 7 2C6.44772 2 6 2.44772 6 3V5C6 5.55228 6.44772 6 7 6C7.55228 6 8 5.55228 8 5V3Z" fill="#9C9188"/>
</svg>
