<svg width="24" height="24" viewBox="0 0 24 24" fill="none" xmlns="http://www.w3.org/2000/svg">
<path d="M5.03027 2H18.0303C18.5607 2 19.0694 2.21071 19.4445 2.58578C19.8195 2.96086 20.0303 3.46957 20.0303 4V20C20.0303 20.5304 19.8195 21.0391 19.4445 21.4142C19.0694 21.7893 18.5607 22 18.0303 22H5.03027C4.76506 22 4.51072 21.8946 4.32318 21.7071C4.13564 21.5196 4.03027 21.2652 4.03027 21V3C4.03027 2.73478 4.13564 2.48041 4.32318 2.29288C4.51072 2.10534 4.76506 2 5.03027 2Z" fill="#E6EAEE"/>
<path d="M5.01074 7H3.01074C2.7346 7 2.51074 7.22386 2.51074 7.5V8.5C2.51074 8.77614 2.7346 9 3.01074 9H5.01074C5.28688 9 5.51074 8.77614 5.51074 8.5V7.5C5.51074 7.22386 5.28688 7 5.01074 7Z" fill="#A0A6AB"/>
<path d="M5.01074 11H3.01074C2.7346 11 2.51074 11.2239 2.51074 11.5V12.5C2.51074 12.7761 2.7346 13 3.01074 13H5.01074C5.28688 13 5.51074 12.7761 5.51074 12.5V11.5C5.51074 11.2239 5.28688 11 5.01074 11Z" fill="#A0A6AB"/>
<path d="M5.01074 15H3.01074C2.7346 15 2.51074 15.2239 2.51074 15.5V16.5C2.51074 16.7761 2.7346 17 3.01074 17H5.01074C5.28688 17 5.51074 16.7761 5.51074 16.5V15.5C5.51074 15.2239 5.28688 15 5.01074 15Z" fill="#A0A6AB"/>
<path d="M12.5103 9.47977L11.2203 10.7698C11.6024 11.3214 12.0342 11.8369 12.5103 12.3098C12.9832 12.7828 13.4988 13.2113 14.0503 13.5898L15.3403 12.3098L17.8103 14.7798L17.0803 15.5198L15.8403 16.7598C15.1987 16.5225 14.5767 16.2349 13.9803 15.8998C12.9184 15.314 11.9452 14.58 11.0903 13.7198C10.2367 12.8652 9.50635 11.8959 8.92032 10.8398C8.58858 10.243 8.30436 9.62112 8.07031 8.97977L9.31032 7.73976L10.0403 7.00977L12.5103 9.47977Z" fill="#48AFBA"/>
</svg>
