<svg width="24" height="24" viewBox="0 0 24 24" fill="none" xmlns="http://www.w3.org/2000/svg">
<path d="M6 4H18C18.5304 4 19.0392 4.21071 19.4142 4.58578C19.7893 4.96086 20 5.46957 20 6V14H4V6C4 5.46957 4.21074 4.96086 4.58582 4.58578C4.96089 4.21071 5.46957 4 6 4Z" fill="#D2C5B8"/>
<path fill-rule="evenodd" clip-rule="evenodd" d="M4 16.75C4.69036 16.75 5.25 17.3096 5.25 18V20C5.25 20.6904 4.69036 21.25 4 21.25C3.30964 21.25 2.75 20.6904 2.75 20V18C2.75 17.3096 3.30964 16.75 4 16.75Z" fill="#707070"/>
<path fill-rule="evenodd" clip-rule="evenodd" d="M20 16.75C20.6904 16.75 21.25 17.3096 21.25 18V20C21.25 20.6904 20.6904 21.25 20 21.25C19.3096 21.25 18.75 20.6904 18.75 20V18C18.75 17.3096 19.3096 16.75 20 16.75Z" fill="#707070"/>
<path d="M1 14H23V18C23 18.2652 22.8947 18.5196 22.7072 18.7071C22.5196 18.8946 22.2652 19 22 19H2C1.73478 19 1.48044 18.8946 1.29291 18.7071C1.10537 18.5196 1 18.2652 1 18V14Z" fill="#9C9188"/>
<path d="M21 9H22C22.2652 9 22.5196 9.10536 22.7072 9.29289C22.8947 9.48043 23 9.73478 23 10V17H20V10C20 9.73478 20.1054 9.48043 20.2929 9.29289C20.4804 9.10536 20.7348 9 21 9Z" fill="#9C9188"/>
<path d="M2 9H3C3.26522 9 3.51962 9.10536 3.70715 9.29289C3.89469 9.48043 4 9.73478 4 10V17H1V10C1 9.73478 1.10537 9.48043 1.29291 9.29289C1.48044 9.10536 1.73478 9 2 9Z" fill="#9C9188"/>
</svg>
