<svg width="24" height="24" viewBox="0 0 24 24" fill="none" xmlns="http://www.w3.org/2000/svg">
<path d="M21 14H3V17H21V14Z" fill="#9C9188"/>
<path d="M3 12H21C21.2652 12 21.5196 12.1053 21.7071 12.2929C21.8946 12.4804 22 12.7348 22 13V14H2V13C2 12.7348 2.10534 12.4804 2.29288 12.2929C2.48041 12.1053 2.73478 12 3 12Z" fill="#9C9188"/>
<path d="M4 22V14H2V22H4Z" fill="#9C9188"/>
<path d="M22 22V14H20V22H22Z" fill="#9C9188"/>
<path d="M14 9H10V12H14V9Z" fill="#C7CED5"/>
<path d="M17.5 2H6.5C5.94772 2 5.5 2.44772 5.5 3V9C5.5 9.55228 5.94772 10 6.5 10H17.5C18.0523 10 18.5 9.55228 18.5 9V3C18.5 2.44772 18.0523 2 17.5 2Z" fill="#737A83"/>
</svg>
