<svg width="24" height="24" viewBox="0 0 24 24" fill="none" xmlns="http://www.w3.org/2000/svg">
<path d="M18 1H6C5.44772 1 5 1.44772 5 2V22C5 22.5523 5.44772 23 6 23H18C18.5523 23 19 22.5523 19 22V2C19 1.44772 18.5523 1 18 1Z" fill="#737A83"/>
<path d="M16.5 4H7.5C7.22386 4 7 4.22386 7 4.5V5.5C7 5.77614 7.22386 6 7.5 6H16.5C16.7761 6 17 5.77614 17 5.5V4.5C17 4.22386 16.7761 4 16.5 4Z" fill="#A0A6AB"/>
<path d="M16.5 7.5H7.5C7.22386 7.5 7 7.72386 7 8V9C7 9.27614 7.22386 9.5 7.5 9.5H16.5C16.7761 9.5 17 9.27614 17 9V8C17 7.72386 16.7761 7.5 16.5 7.5Z" fill="#A0A6AB"/>
<path d="M16.5 11H7.5C7.22386 11 7 11.2239 7 11.5V12.5C7 12.7761 7.22386 13 7.5 13H16.5C16.7761 13 17 12.7761 17 12.5V11.5C17 11.2239 16.7761 11 16.5 11Z" fill="#A0A6AB"/>
<path d="M12 20C12.8284 20 13.5 19.3284 13.5 18.5C13.5 17.6716 12.8284 17 12 17C11.1716 17 10.5 17.6716 10.5 18.5C10.5 19.3284 11.1716 20 12 20Z" fill="#E7ECEF"/>
</svg>
