<svg width="24" height="24" viewBox="0 0 24 24" fill="none" xmlns="http://www.w3.org/2000/svg">
<path d="M8 1H16C16.2652 1 16.5196 1.10537 16.7072 1.29291C16.8947 1.48044 17 1.73478 17 2V11H7V2C7 1.73478 7.10537 1.48044 7.29291 1.29291C7.48044 1.10537 7.73478 1 8 1Z" fill="#EFE8E1"/>
<path d="M2 13H10C10.2652 13 10.5196 13.1054 10.7072 13.2929C10.8947 13.4804 11 13.7348 11 14V23H1V14C1 13.7348 1.10537 13.4804 1.29291 13.2929C1.48044 13.1054 1.73478 13 2 13Z" fill="#EFE8E1"/>
<path d="M14 13H22C22.2652 13 22.5196 13.1054 22.7072 13.2929C22.8947 13.4804 23 13.7348 23 14V23H13V14C13 13.7348 13.1054 13.4804 13.2929 13.2929C13.4804 13.1054 13.7348 13 14 13Z" fill="#EFE8E1"/>
<path d="M13.5 1H10.5V4H13.5V1Z" fill="#9C9188"/>
<path d="M7.5 13H4.5V16H7.5V13Z" fill="#9C9188"/>
<path d="M19.5 13H16.5V16H19.5V13Z" fill="#9C9188"/>
</svg>
