<svg width="24" height="24" viewBox="0 0 24 24" fill="none" xmlns="http://www.w3.org/2000/svg">
<path d="M12.0107 21.5C17.2574 21.5 21.5107 17.2467 21.5107 12C21.5107 6.75329 17.2574 2.5 12.0107 2.5C6.76404 2.5 2.51074 6.75329 2.51074 12C2.51074 17.2467 6.76404 21.5 12.0107 21.5Z" fill="#6BA6FF"/>
<path d="M6.86077 11.61C6.72472 11.4752 6.61671 11.3148 6.54301 11.138C6.4693 10.9612 6.43136 10.7716 6.43136 10.5801C6.43136 10.3885 6.4693 10.1989 6.54301 10.0221C6.61671 9.84531 6.72472 9.68486 6.86077 9.55005C7.03886 9.37424 7.18025 9.16485 7.27676 8.93396C7.37327 8.70307 7.42297 8.45532 7.42297 8.20508C7.42297 7.95483 7.37327 7.70708 7.27676 7.4762C7.18025 7.24531 7.03886 7.03585 6.86077 6.86005L5.29077 5.29004C4.40699 6.17138 3.70635 7.21892 3.22923 8.37225C2.7521 9.52559 2.50793 10.7619 2.51077 12.0101C2.51081 13.8296 3.03506 15.6107 4.02078 17.1401L6.86077 14.3C7.03886 14.1242 7.18025 13.9148 7.27676 13.684C7.37327 13.4531 7.42297 13.2053 7.42297 12.9551C7.42297 12.7048 7.37327 12.4571 7.27676 12.2262C7.18025 11.9953 7.03886 11.7859 6.86077 11.61Z" fill="#91E2C5"/>
<path d="M17.6999 4.37988L12.0099 10.0699C11.6551 10.4276 11.4561 10.911 11.4561 11.4149C11.4561 11.9187 11.6551 12.4022 12.0099 12.7599L14.5399 15.2799C14.7149 15.4577 14.9235 15.5989 15.1535 15.6953C15.3836 15.7916 15.6305 15.8412 15.8799 15.8412C16.1294 15.8412 16.3763 15.7916 16.6064 15.6953C16.8364 15.5989 17.045 15.4577 17.2199 15.2799L18.7399 13.7699C19.0833 13.429 19.5443 13.2328 20.028 13.2216C20.5117 13.2105 20.9812 13.3852 21.3399 13.7099C21.4523 13.1401 21.5092 12.5607 21.5099 11.9799C21.5095 10.504 21.165 9.04868 20.5036 7.72937C19.8422 6.41006 18.8822 5.26319 17.6999 4.37988Z" fill="#91E2C5"/>
<path d="M9.18074 19.0799L7.76074 20.4899C9.07274 21.1505 10.5218 21.4931 11.9908 21.4899C12.7215 21.4847 13.4494 21.3975 14.1608 21.2298L11.9908 19.0599C11.6138 18.693 11.1076 18.4895 10.5816 18.4932C10.0557 18.497 9.5524 18.7077 9.18074 19.0799Z" fill="#91E2C5"/>
</svg>
