<svg width="24" height="24" viewBox="0 0 24 24" fill="none" xmlns="http://www.w3.org/2000/svg">
<path d="M18.0098 4H6.00977C4.9052 4 4.00977 4.89543 4.00977 6V18C4.00977 19.1046 4.9052 20 6.00977 20H18.0098C19.1143 20 20.0098 19.1046 20.0098 18V6C20.0098 4.89543 19.1143 4 18.0098 4Z" fill="#48AFBA"/>
<path d="M13.0098 2H11.0098V4H13.0098V2Z" fill="#737A83"/>
<path d="M17.0098 2H15.0098V4H17.0098V2Z" fill="#737A83"/>
<path d="M9.00977 2H7.00977V4H9.00977V2Z" fill="#737A83"/>
<path d="M22.0098 13V11H20.0098V13H22.0098Z" fill="#737A83"/>
<path d="M22.0098 17V15H20.0098V17H22.0098Z" fill="#737A83"/>
<path d="M22.0098 9V7H20.0098V9H22.0098Z" fill="#737A83"/>
<path d="M4.00977 13V11H2.00977V13H4.00977Z" fill="#737A83"/>
<path d="M4.00977 17V15H2.00977V17H4.00977Z" fill="#737A83"/>
<path d="M4.00977 9V7H2.00977V9H4.00977Z" fill="#737A83"/>
<path d="M13.0098 20H11.0098V22H13.0098V20Z" fill="#737A83"/>
<path d="M17.0098 20H15.0098V22H17.0098V20Z" fill="#737A83"/>
<path d="M9.00977 20H7.00977V22H9.00977V20Z" fill="#737A83"/>
<path d="M16.0098 7H8.00977C7.45748 7 7.00977 7.44772 7.00977 8V16C7.00977 16.5523 7.45748 17 8.00977 17H16.0098C16.5621 17 17.0098 16.5523 17.0098 16V8C17.0098 7.44772 16.5621 7 16.0098 7Z" fill="#E7ECEF"/>
</svg>
