<svg width="24" height="24" viewBox="0 0 24 24" fill="none" xmlns="http://www.w3.org/2000/svg">
<path d="M15.5352 1.3925L22.6063 8.46357C22.7938 8.65111 22.8992 8.90544 22.8992 9.17066C22.8992 9.43587 22.7938 9.69025 22.6063 9.87778L14.121 18.363L5.63574 9.87778L14.121 1.3925C14.3086 1.20497 14.5629 1.09961 14.8281 1.09961C15.0934 1.09961 15.3477 1.20497 15.5352 1.3925Z" fill="#6B758F"/>
<path d="M5.63905 9.87695L14.1244 18.3622L9.88169 22.6049C9.69416 22.7924 9.43978 22.8978 9.17456 22.8978C8.90935 22.8978 8.65502 22.7924 8.46748 22.6049L1.39641 15.5338C1.20887 15.3463 1.10352 15.0919 1.10352 14.8267C1.10352 14.5615 1.20887 14.3071 1.39641 14.1196L5.63905 9.87695Z" fill="#F0F0F0"/>
</svg>
