<svg width="24" height="24" viewBox="0 0 24 24" fill="none" xmlns="http://www.w3.org/2000/svg">
<path d="M2.00977 22.0107H22.0098V12.0107C22.0098 11.7455 21.9044 11.4912 21.7169 11.3036C21.5293 11.1161 21.275 11.0107 21.0098 11.0107H12.0098V7.01074L7.00977 11.0107V7.01074L2.75977 10.4107C2.52589 10.598 2.33707 10.8354 2.20726 11.1054C2.07745 11.3754 2.00995 11.6711 2.00977 11.9707V22.0107Z" fill="#999999"/>
<path d="M20.0098 5H15.0098V8H20.0098V5Z" fill="#E8E8E8"/>
<path d="M20.0098 8H15.0098V11H20.0098V8Z" fill="#F57C75"/>
<path d="M16.0098 2H19.0098C19.275 2 19.5293 2.10536 19.7169 2.29289C19.9044 2.48043 20.0098 2.73478 20.0098 3V5H15.0098V3C15.0098 2.73478 15.1151 2.48043 15.3027 2.29289C15.4902 2.10536 15.7445 2 16.0098 2Z" fill="#F57C75"/>
<path d="M7.25977 15.25H8.75977C9.03591 15.25 9.25977 15.0261 9.25977 14.75V13.25C9.25977 12.9739 9.03591 12.75 8.75977 12.75H7.25977C6.98362 12.75 6.75977 12.9739 6.75977 13.25V14.75C6.75977 15.0261 6.98362 15.25 7.25977 15.25Z" fill="white"/>
<path d="M11.2598 15.25H12.7598C13.0359 15.25 13.2598 15.0261 13.2598 14.75V13.25C13.2598 12.9739 13.0359 12.75 12.7598 12.75H11.2598C10.9836 12.75 10.7598 12.9739 10.7598 13.25V14.75C10.7598 15.0261 10.9836 15.25 11.2598 15.25Z" fill="white"/>
<path d="M15.2598 15.25H16.7598C17.0359 15.25 17.2598 15.0261 17.2598 14.75V13.25C17.2598 12.9739 17.0359 12.75 16.7598 12.75H15.2598C14.9836 12.75 14.7598 12.9739 14.7598 13.25V14.75C14.7598 15.0261 14.9836 15.25 15.2598 15.25Z" fill="white"/>
<path d="M7.25977 19.25H8.75977C9.03591 19.25 9.25977 19.0261 9.25977 18.75V17.25C9.25977 16.9739 9.03591 16.75 8.75977 16.75H7.25977C6.98362 16.75 6.75977 16.9739 6.75977 17.25V18.75C6.75977 19.0261 6.98362 19.25 7.25977 19.25Z" fill="white"/>
<path d="M11.2598 19.25H12.7598C13.0359 19.25 13.2598 19.0261 13.2598 18.75V17.25C13.2598 16.9739 13.0359 16.75 12.7598 16.75H11.2598C10.9836 16.75 10.7598 16.9739 10.7598 17.25V18.75C10.7598 19.0261 10.9836 19.25 11.2598 19.25Z" fill="white"/>
<path d="M15.2598 19.25H16.7598C17.0359 19.25 17.2598 19.0261 17.2598 18.75V17.25C17.2598 16.9739 17.0359 16.75 16.7598 16.75H15.2598C14.9836 16.75 14.7598 16.9739 14.7598 17.25V18.75C14.7598 19.0261 14.9836 19.25 15.2598 19.25Z" fill="white"/>
</svg>
