<svg width="24" height="24" viewBox="0 0 24 24" fill="none" xmlns="http://www.w3.org/2000/svg">
<g clip-path="url(#clip0_397_5768)">
<mask id="mask0_397_5768" style="mask-type:luminance" maskUnits="userSpaceOnUse" x="0" y="0" width="24" height="24">
<path d="M24 0H0V24H24V0Z" fill="white"/>
</mask>
<g mask="url(#mask0_397_5768)">
<path d="M12 17C11.31 17 10.75 16.44 10.75 15.75V11C10.75 10.31 11.31 9.75 12 9.75C12.69 9.75 13.25 10.31 13.25 11V15.75C13.25 16.44 12.69 17 12 17Z" fill="#6B758F"/>
<path d="M12 21.53C11.31 21.53 10.75 20.97 10.75 20.28V19.25C10.75 18.56 11.31 18 12 18C12.69 18 13.25 18.56 13.25 19.25V20.28C13.25 20.97 12.69 21.53 12 21.53Z" fill="#6B758F"/>
<path d="M19.9996 16.25C19.3096 16.25 18.7496 15.69 18.7496 15V11C18.7496 7.28 15.7196 4.25 11.9996 4.25C9.59967 4.25 7.35967 5.54 6.14967 7.63C5.79967 8.23 5.03967 8.43 4.43967 8.09C3.83967 7.74 3.63967 6.98 3.97967 6.38C5.63967 3.52 8.70967 1.75 11.9996 1.75C17.0996 1.75 21.2496 5.9 21.2496 11V15C21.2496 15.69 20.6896 16.25 19.9996 16.25Z" fill="#6B758F"/>
<path d="M8 20.25C7.31 20.25 6.75 19.69 6.75 19V11C6.75 8.11 9.1 5.75 12 5.75C14.9 5.75 17.25 8.11 17.25 11V14C17.25 14.69 16.69 15.25 16 15.25C15.31 15.25 14.75 14.69 14.75 14V11C14.75 9.48 13.52 8.25 12 8.25C10.48 8.25 9.25 9.48 9.25 11V19C9.25 19.69 8.69 20.25 8 20.25Z" fill="#6B758F"/>
<path d="M4 16.25C3.31 16.25 2.75 15.69 2.75 15V11C2.75 10.31 3.31 9.75 4 9.75C4.69 9.75 5.25 10.31 5.25 11V15C5.25 15.69 4.69 16.25 4 16.25Z" fill="#6B758F"/>
<path d="M16 20.25C15.31 20.25 14.75 19.69 14.75 19V17.54C14.75 16.85 15.31 16.29 16 16.29C16.69 16.29 17.25 16.85 17.25 17.54V19C17.25 19.69 16.69 20.25 16 20.25Z" fill="#6B758F"/>
</g>
</g>
<defs>
<clipPath id="clip0_397_5768">
<rect width="24" height="24" fill="white"/>
</clipPath>
</defs>
</svg>
