<svg width="24" height="24" viewBox="0 0 24 24" fill="none" xmlns="http://www.w3.org/2000/svg">
<path d="M21.3604 15.5293C21.5915 14.9147 21.6993 14.2606 21.6777 13.6044C21.656 12.9481 21.5053 12.3025 21.2341 11.7045C20.963 11.1065 20.5767 10.5677 20.0974 10.119C19.618 9.67029 19.055 9.32042 18.4404 9.08929C17.1992 8.62251 15.8234 8.66791 14.6156 9.21552C13.4079 9.76312 12.4672 10.7681 12.0004 12.0093C11.5336 13.2505 10.5929 14.2554 9.38512 14.803C8.17739 15.3506 6.80158 15.396 5.56037 14.9293C4.94579 14.6981 4.38274 14.3483 3.90339 13.8995C3.42403 13.4508 3.03776 12.912 2.76661 12.314C2.49546 11.716 2.34476 11.0704 2.3231 10.4142C2.30144 9.75793 2.40925 9.10384 2.64037 8.48926C2.17659 9.71901 1.95976 11.0281 2.00231 12.3417C2.04486 13.6553 2.34594 14.9477 2.88833 16.1449C3.43072 17.3421 4.20379 18.4206 5.16332 19.3187C6.12285 20.2169 7.25002 20.9171 8.48037 21.3793C9.70954 21.8415 11.0177 22.0572 12.3302 22.0139C13.6427 21.9705 14.9339 21.6691 16.1299 21.1268C17.3259 20.5845 18.4034 19.812 19.3008 18.8533C20.1983 17.8946 20.8981 16.7684 21.3604 15.5392V15.5293Z" fill="#6B758F"/>
<path d="M15.5203 2.64979C14.2911 2.18754 12.9829 1.97189 11.6704 2.01521C10.3579 2.05853 9.06683 2.35994 7.87081 2.90223C6.67479 3.44453 5.59728 4.21708 4.69983 5.17579C3.80238 6.1345 3.10256 7.26058 2.64031 8.48976C2.40918 9.10434 2.30137 9.75843 2.32303 10.4147C2.34469 11.0709 2.4954 11.7165 2.76655 12.3145C3.03769 12.9125 3.42397 13.4513 3.90333 13.9C4.38268 14.3488 4.94572 14.6986 5.56031 14.9298C6.17489 15.1609 6.82898 15.2687 7.48523 15.2471C8.14149 15.2254 8.78705 15.0747 9.38506 14.8035C9.98307 14.5324 10.5218 14.1461 10.9705 13.6668C11.4193 13.1874 11.7692 12.6244 12.0003 12.0098C12.2314 11.3952 12.5814 10.8321 13.0301 10.3528C13.4788 9.87344 14.0176 9.48716 14.6156 9.21601C15.2136 8.94487 15.8591 8.79413 16.5154 8.77247C17.1716 8.75081 17.8257 8.85867 18.4403 9.08979C19.0549 9.32092 19.6179 9.67079 20.0973 10.1195C20.5767 10.5682 20.9629 11.107 21.2341 11.705C21.5052 12.303 21.6559 12.9486 21.6776 13.6049C21.6992 14.2611 21.5914 14.9152 21.3603 15.5298C21.8226 14.3006 22.0382 12.9924 21.9949 11.6799C21.9515 10.3674 21.6501 9.07628 21.1078 7.88026C20.5655 6.68424 19.793 5.60675 18.8343 4.7093C17.8756 3.81185 16.7495 3.11204 15.5203 2.64979Z" fill="#F4868F"/>
</svg>
