<svg width="24" height="24" viewBox="0 0 24 24" fill="none" xmlns="http://www.w3.org/2000/svg">
<path d="M18 9.00977C17.4696 9.00977 16.9609 9.22047 16.5858 9.59554C16.2107 9.97061 16 10.4793 16 11.0098C16 11.5402 16.2107 12.0489 16.5858 12.424C16.9609 12.7991 17.4696 13.0098 18 13.0098C18.5304 13.0098 19.0391 12.7991 19.4142 12.424C19.7893 12.0489 20 11.5402 20 11.0098C20 10.4793 19.7893 9.97061 19.4142 9.59554C19.0391 9.22047 18.5304 9.00977 18 9.00977Z" fill="#6B758F"/>
<path d="M14.5098 19H9.50977C9.24455 19 8.99018 18.8946 8.80264 18.7071C8.61511 18.5196 8.50977 18.2652 8.50977 18V14C8.50977 13.2044 8.82585 12.4413 9.38846 11.8787C9.95107 11.3161 10.7141 11 11.5098 11H12.5098C13.3054 11 14.0685 11.3161 14.6311 11.8787C15.1937 12.4413 15.5098 13.2044 15.5098 14V18C15.5098 18.2652 15.4044 18.5196 15.2169 18.7071C15.0293 18.8946 14.775 19 14.5098 19Z" fill="#C7CED5"/>
<path d="M12 6.00977C11.4696 6.00977 10.9609 6.22048 10.5858 6.59555C10.2107 6.97062 10 7.47933 10 8.00977C10 8.5402 10.2107 9.04891 10.5858 9.42398C10.9609 9.79905 11.4696 10.0098 12 10.0098C12.5304 10.0098 13.0391 9.79905 13.4142 9.42398C13.7893 9.04891 14 8.5402 14 8.00977C14 7.47933 13.7893 6.97062 13.4142 6.59555C13.0391 6.22048 12.5304 6.00977 12 6.00977Z" fill="#C7CED5"/>
<path d="M6 9.00977C5.46957 9.00977 4.96086 9.22047 4.58578 9.59554C4.21071 9.97061 4 10.4793 4 11.0098C4 11.5402 4.21071 12.0489 4.58578 12.424C4.96086 12.7991 5.46957 13.0098 6 13.0098C6.53043 13.0098 7.03914 12.7991 7.41422 12.424C7.78929 12.0489 8 11.5402 8 11.0098C8 10.4793 7.78929 9.97061 7.41422 9.59554C7.03914 9.22047 6.53043 9.00977 6 9.00977Z" fill="#6B758F"/>
<path d="M17 3.00977C16.4696 3.00977 15.9609 3.22048 15.5858 3.59555C15.2107 3.97062 15 4.47933 15 5.00977C15 5.5402 15.2107 6.04891 15.5858 6.42398C15.9609 6.79905 16.4696 7.00977 17 7.00977C17.5304 7.00977 18.0391 6.79905 18.4142 6.42398C18.7893 6.04891 19 5.5402 19 5.00977C19 4.47933 18.7893 3.97062 18.4142 3.59555C18.0391 3.22048 17.5304 3.00977 17 3.00977Z" fill="#C7CED5"/>
<path d="M7 3.00977C6.46957 3.00977 5.96086 3.22048 5.58578 3.59555C5.21071 3.97062 5 4.47933 5 5.00977C5 5.5402 5.21071 6.04891 5.58578 6.42398C5.96086 6.79905 6.46957 7.00977 7 7.00977C7.53043 7.00977 8.03914 6.79905 8.41422 6.42398C8.78929 6.04891 9 5.5402 9 5.00977C9 4.47933 8.78929 3.97062 8.41422 3.59555C8.03914 3.22048 7.53043 3.00977 7 3.00977Z" fill="#C7CED5"/>
<path d="M20.5098 22H15.5098C15.2445 22 14.9902 21.8946 14.8026 21.7071C14.6151 21.5196 14.5098 21.2652 14.5098 21V17C14.5098 16.2044 14.8258 15.4413 15.3885 14.8787C15.9511 14.3161 16.7141 14 17.5098 14H18.5098C19.3054 14 20.0685 14.3161 20.6311 14.8787C21.1937 15.4413 21.5098 16.2044 21.5098 17V21C21.5098 21.2652 21.4044 21.5196 21.2169 21.7071C21.0293 21.8946 20.775 22 20.5098 22Z" fill="#6B758F"/>
<path d="M8.50977 22H3.50977C3.24455 22 2.99018 21.8946 2.80264 21.7071C2.61511 21.5196 2.50977 21.2652 2.50977 21V17C2.50977 16.2044 2.82585 15.4413 3.38846 14.8787C3.95107 14.3161 4.71412 14 5.50977 14H6.50977C7.30542 14 8.06846 14.3161 8.63107 14.8787C9.19368 15.4413 9.50977 16.2044 9.50977 17V21C9.50977 21.2652 9.40439 21.5196 9.21686 21.7071C9.02932 21.8946 8.77498 22 8.50977 22Z" fill="#6B758F"/>
</svg>
