<svg width="24" height="24" viewBox="0 0 24 24" fill="none" xmlns="http://www.w3.org/2000/svg">
<path d="M14 15H1V6H12L14 15Z" fill="#C7CED5"/>
<path d="M9.59 21.59L3 15L12 6L18.59 12.59C18.9625 12.9647 19.1716 13.4716 19.1716 14C19.1716 14.5284 18.9625 15.0353 18.59 15.41L12.41 21.59C12.0353 21.9625 11.5284 22.1716 11 22.1716C10.4716 22.1716 9.96473 21.9625 9.59 21.59Z" fill="#C7CED5"/>
<path d="M14.7404 4.3C14.2652 4.11075 13.7356 4.11075 13.2604 4.3L9.12039 6C8.88294 6.08874 8.66665 6.2261 8.48537 6.40328C8.30409 6.58046 8.16182 6.79355 8.06767 7.02891C7.97353 7.26427 7.92959 7.5167 7.93867 7.77002C7.94775 8.02335 8.00964 8.27199 8.12039 8.5C8.33864 8.96709 8.72883 9.33185 9.20955 9.51817C9.69026 9.7045 10.2244 9.69799 10.7004 9.5L14.0004 8L18.5904 12.59C18.9629 12.9647 19.172 13.4716 19.172 14C19.172 14.5284 18.9629 15.0353 18.5904 15.41L17.0004 17H23.0004V4L19.0004 6L14.7404 4.3Z" fill="#6B758F"/>
</svg>
