<svg width="24" height="24" viewBox="0 0 24 24" fill="none" xmlns="http://www.w3.org/2000/svg">
<path d="M21 12L12 4L3 12V22H21V12Z" fill="#E8E8E8"/>
<path d="M10.6498 2.21965L1.79972 10.2197C1.70196 10.3086 1.62279 10.416 1.56681 10.5357C1.51082 10.6555 1.47913 10.7851 1.47355 10.9171C1.46797 11.0492 1.48865 11.181 1.53434 11.305C1.58002 11.4291 1.64981 11.5428 1.73972 11.6397L1.88975 11.7997C2.06906 11.9941 2.31811 12.1096 2.58237 12.1208C2.84663 12.1321 3.10454 12.0382 3.29972 11.8597L11.2997 4.55965C11.4835 4.39381 11.7222 4.30201 11.9698 4.30201C12.2173 4.30201 12.456 4.39381 12.6397 4.55965L20.6397 11.8597C20.8349 12.0382 21.0929 12.1321 21.3572 12.1208C21.6214 12.1096 21.8704 11.9941 22.0497 11.7997L22.1997 11.6397C22.289 11.5421 22.3581 11.4279 22.403 11.3035C22.4478 11.1791 22.4675 11.0471 22.461 10.915C22.4545 10.783 22.4219 10.6535 22.365 10.5342C22.3082 10.4148 22.2282 10.3079 22.1297 10.2197L13.2798 2.21965C12.9154 1.90173 12.4483 1.72656 11.9648 1.72656C11.4812 1.72656 11.0141 1.90173 10.6498 2.21965Z" fill="#F57C75"/>
<path d="M11 13H6V22H11V13Z" fill="#737A83"/>
<path d="M18 13H14V17H18V13Z" fill="#737A83"/>
</svg>
