<svg width="24" height="24" viewBox="0 0 24 24" fill="none" xmlns="http://www.w3.org/2000/svg">
<path d="M3.03027 12H21.0303C21.2955 12 21.5498 12.1053 21.7374 12.2929C21.9249 12.4804 22.0303 12.7348 22.0303 13V22H2.03027V13C2.03027 12.7348 2.13564 12.4804 2.32318 12.2929C2.51072 12.1053 2.76506 12 3.03027 12Z" fill="#C7CED5"/>
<path d="M6.03027 3H18.0303C18.2955 3 18.5498 3.10536 18.7374 3.29289C18.9249 3.48043 19.0303 3.73478 19.0303 4V22H5.03027V4C5.03027 3.73478 5.13564 3.48043 5.32318 3.29289C5.51072 3.10536 5.76506 3 6.03027 3Z" fill="#E7ECEF"/>
<path d="M10.7607 12.75H9.26074C8.9846 12.75 8.76074 12.9739 8.76074 13.25V14.75C8.76074 15.0261 8.9846 15.25 9.26074 15.25H10.7607C11.0369 15.25 11.2607 15.0261 11.2607 14.75V13.25C11.2607 12.9739 11.0369 12.75 10.7607 12.75Z" fill="#737A83"/>
<path d="M14.7607 12.75H13.2607C12.9846 12.75 12.7607 12.9739 12.7607 13.25V14.75C12.7607 15.0261 12.9846 15.25 13.2607 15.25H14.7607C15.0369 15.25 15.2607 15.0261 15.2607 14.75V13.25C15.2607 12.9739 15.0369 12.75 14.7607 12.75Z" fill="#737A83"/>
<path d="M10.7607 16.75H9.26074C8.9846 16.75 8.76074 16.9739 8.76074 17.25V18.75C8.76074 19.0261 8.9846 19.25 9.26074 19.25H10.7607C11.0369 19.25 11.2607 19.0261 11.2607 18.75V17.25C11.2607 16.9739 11.0369 16.75 10.7607 16.75Z" fill="#737A83"/>
<path d="M14.7607 16.75H13.2607C12.9846 16.75 12.7607 16.9739 12.7607 17.25V18.75C12.7607 19.0261 12.9846 19.25 13.2607 19.25H14.7607C15.0369 19.25 15.2607 19.0261 15.2607 18.75V17.25C15.2607 16.9739 15.0369 16.75 14.7607 16.75Z" fill="#737A83"/>
<path d="M11.0107 7V5H13.0107V7H15.0107V9H13.0107V11H11.0107V9H9.01074V7H11.0107Z" fill="#F57C75"/>
</svg>
