<svg width="24" height="24" viewBox="0 0 24 24" fill="none" xmlns="http://www.w3.org/2000/svg">
<g clip-path="url(#clip0_397_5816)">
<mask id="mask0_397_5816" style="mask-type:luminance" maskUnits="userSpaceOnUse" x="0" y="0" width="24" height="24">
<path d="M24 0H0V24H24V0Z" fill="white"/>
</mask>
<g mask="url(#mask0_397_5816)">
<path d="M18 3H6C4.89543 3 4 3.89543 4 5V21C4 22.1046 4.89543 23 6 23H18C19.1046 23 20 22.1046 20 21V5C20 3.89543 19.1046 3 18 3Z" fill="#E7ECEF"/>
<path d="M12 8C11.6044 8 11.2178 8.1173 10.8889 8.33706C10.56 8.55682 10.3036 8.86918 10.1522 9.23463C10.0009 9.60009 9.96126 10.0022 10.0384 10.3902C10.1156 10.7781 10.3061 11.1345 10.5858 11.4142C10.8655 11.6939 11.2219 11.8844 11.6098 11.9616C11.9978 12.0387 12.3999 11.9991 12.7654 11.8478C13.1308 11.6964 13.4432 11.44 13.6629 11.1111C13.8827 10.7822 14 10.3956 14 10C14 9.46957 13.7893 8.96086 13.4142 8.58579C13.0391 8.21071 12.5304 8 12 8Z" fill="#6B758F"/>
<path d="M16 16C16 15.2044 15.6839 14.4413 15.1213 13.8787C14.5587 13.3161 13.7956 13 13 13H11C10.2044 13 9.44129 13.3161 8.87868 13.8787C8.31607 14.4413 8 15.2044 8 16C8 16.2652 8.10536 16.5196 8.29289 16.7071C8.48043 16.8946 8.73478 17 9 17H15C15.2652 17 15.5196 16.8946 15.7071 16.7071C15.8946 16.5196 16 16.2652 16 16Z" fill="#6B758F"/>
<path d="M10 1H14C14.2652 1 14.5196 1.10536 14.7071 1.29289C14.8946 1.48043 15 1.73478 15 2V3H9V2C9 1.73478 9.10536 1.48043 9.29289 1.29289C9.48043 1.10536 9.73478 1 10 1Z" fill="#A0A6AB"/>
</g>
</g>
<defs>
<clipPath id="clip0_397_5816">
<rect width="24" height="24" fill="white"/>
</clipPath>
</defs>
</svg>
