<svg width="24" height="24" viewBox="0 0 24 24" fill="none" xmlns="http://www.w3.org/2000/svg">
<path d="M21 5H3C1.89543 5 1 5.89543 1 7V17C1 18.1046 1.89543 19 3 19H21C22.1046 19 23 18.1046 23 17V7C23 5.89543 22.1046 5 21 5Z" fill="#A0A6AB"/>
<path d="M5.5 14.5H4.5C4.22386 14.5 4 14.7239 4 15V16C4 16.2761 4.22386 16.5 4.5 16.5H5.5C5.77614 16.5 6 16.2761 6 16V15C6 14.7239 5.77614 14.5 5.5 14.5Z" fill="#E7ECEF"/>
<path d="M16 14.5H8C7.72386 14.5 7.5 14.7239 7.5 15V16C7.5 16.2761 7.72386 16.5 8 16.5H16C16.2761 16.5 16.5 16.2761 16.5 16V15C16.5 14.7239 16.2761 14.5 16 14.5Z" fill="#E7ECEF"/>
<path d="M19.5 14.5H18.5C18.2239 14.5 18 14.7239 18 15V16C18 16.2761 18.2239 16.5 18.5 16.5H19.5C19.7761 16.5 20 16.2761 20 16V15C20 14.7239 19.7761 14.5 19.5 14.5Z" fill="#E7ECEF"/>
<path d="M9 7.5H8C7.72386 7.5 7.5 7.72386 7.5 8V9C7.5 9.27614 7.72386 9.5 8 9.5H9C9.27614 9.5 9.5 9.27614 9.5 9V8C9.5 7.72386 9.27614 7.5 9 7.5Z" fill="#E7ECEF"/>
<path d="M12.5 7.5H11.5C11.2239 7.5 11 7.72386 11 8V9C11 9.27614 11.2239 9.5 11.5 9.5H12.5C12.7761 9.5 13 9.27614 13 9V8C13 7.72386 12.7761 7.5 12.5 7.5Z" fill="#E7ECEF"/>
<path d="M16 7.5H15C14.7239 7.5 14.5 7.72386 14.5 8V9C14.5 9.27614 14.7239 9.5 15 9.5H16C16.2761 9.5 16.5 9.27614 16.5 9V8C16.5 7.72386 16.2761 7.5 16 7.5Z" fill="#E7ECEF"/>
<path d="M19.5 7.5H18.5C18.2239 7.5 18 7.72386 18 8V9C18 9.27614 18.2239 9.5 18.5 9.5H19.5C19.7761 9.5 20 9.27614 20 9V8C20 7.72386 19.7761 7.5 19.5 7.5Z" fill="#E7ECEF"/>
<path d="M5.5 7.5H4.5C4.22386 7.5 4 7.72386 4 8V9C4 9.27614 4.22386 9.5 4.5 9.5H5.5C5.77614 9.5 6 9.27614 6 9V8C6 7.72386 5.77614 7.5 5.5 7.5Z" fill="#E7ECEF"/>
<path d="M9 11H8C7.72386 11 7.5 11.2239 7.5 11.5V12.5C7.5 12.7761 7.72386 13 8 13H9C9.27614 13 9.5 12.7761 9.5 12.5V11.5C9.5 11.2239 9.27614 11 9 11Z" fill="#E7ECEF"/>
<path d="M12.5 11H11.5C11.2239 11 11 11.2239 11 11.5V12.5C11 12.7761 11.2239 13 11.5 13H12.5C12.7761 13 13 12.7761 13 12.5V11.5C13 11.2239 12.7761 11 12.5 11Z" fill="#E7ECEF"/>
<path d="M16 11H15C14.7239 11 14.5 11.2239 14.5 11.5V12.5C14.5 12.7761 14.7239 13 15 13H16C16.2761 13 16.5 12.7761 16.5 12.5V11.5C16.5 11.2239 16.2761 11 16 11Z" fill="#E7ECEF"/>
<path d="M19.5 11H18.5C18.2239 11 18 11.2239 18 11.5V12.5C18 12.7761 18.2239 13 18.5 13H19.5C19.7761 13 20 12.7761 20 12.5V11.5C20 11.2239 19.7761 11 19.5 11Z" fill="#E7ECEF"/>
<path d="M5.5 11H4.5C4.22386 11 4 11.2239 4 11.5V12.5C4 12.7761 4.22386 13 4.5 13H5.5C5.77614 13 6 12.7761 6 12.5V11.5C6 11.2239 5.77614 11 5.5 11Z" fill="#E7ECEF"/>
</svg>
