<svg width="24" height="24" viewBox="0 0 24 24" fill="none" xmlns="http://www.w3.org/2000/svg">
<path d="M4 4H20C20.5304 4 21.0391 4.21071 21.4142 4.58578C21.7893 4.96086 22 5.46957 22 6V16C22 16.2652 21.8946 16.5196 21.7071 16.7071C21.5196 16.8946 21.2652 17 21 17H3C2.73478 17 2.48044 16.8946 2.29291 16.7071C2.10537 16.5196 2 16.2652 2 16V6C2 5.46957 2.21068 4.96086 2.58575 4.58578C2.96083 4.21071 3.46957 4 4 4Z" fill="#737A83"/>
<path d="M1 17H23V18C23 18.2652 22.8946 18.5196 22.7071 18.7071C22.5196 18.8946 22.2652 19 22 19H2C1.73478 19 1.48044 18.8946 1.29291 18.7071C1.10537 18.5196 1 18.2652 1 18V17Z" fill="#737A83"/>
<path d="M20 6H4V15H20V6Z" fill="url(#paint0_linear_397_5848)"/>
<defs>
<linearGradient id="paint0_linear_397_5848" x1="4" y1="6" x2="20" y2="15" gradientUnits="userSpaceOnUse">
<stop offset="0.255208" stop-color="#BCEEF9"/>
<stop offset="1" stop-color="#FFDB80"/>
</linearGradient>
</defs>
</svg>
