<svg width="24" height="24" viewBox="0 0 24 24" fill="none" xmlns="http://www.w3.org/2000/svg">
<path d="M12.2598 2H11.7598C11.2075 2 10.7598 2.44772 10.7598 3V6C10.7598 6.55228 11.2075 7 11.7598 7H12.2598C12.8121 7 13.2598 6.55228 13.2598 6V3C13.2598 2.44772 12.8121 2 12.2598 2Z" fill="#5096FF"/>
<path d="M5.11324 4.74894L4.75969 5.10249C4.36917 5.49302 4.36917 6.12618 4.75969 6.51671L6.88101 8.63803C7.27154 9.02855 7.9047 9.02855 8.29522 8.63803L8.64878 8.28447C9.0393 7.89395 9.0393 7.26079 8.64878 6.87027L6.52746 4.74894C6.13693 4.35842 5.50377 4.35842 5.11324 4.74894Z" fill="#DBECFF"/>
<path d="M2 11.75V12.25C2 12.8023 2.44772 13.25 3 13.25H6C6.55228 13.25 7 12.8023 7 12.25V11.75C7 11.1977 6.55228 10.75 6 10.75H3C2.44772 10.75 2 11.1977 2 11.75Z" fill="#DBECFF"/>
<path d="M4.75872 18.8919L5.11227 19.2454C5.50279 19.636 6.13596 19.636 6.52648 19.2454L8.6478 17.1241C9.03833 16.7336 9.03833 16.1004 8.6478 15.7099L8.29425 15.3564C7.90373 14.9658 7.27056 14.9658 6.88004 15.3564L4.75872 17.4777C4.36819 17.8682 4.36819 18.5014 4.75872 18.8919Z" fill="#88BFFF"/>
<path d="M11.7393 22H12.2393C12.7915 22 13.2393 21.5523 13.2393 21V18C13.2393 17.4477 12.7915 17 12.2393 17H11.7393C11.187 17 10.7393 17.4477 10.7393 18V21C10.7393 21.5523 11.187 22 11.7393 22Z" fill="#88BFFF"/>
<path d="M18.8987 19.2542L19.2523 18.9007C19.6428 18.5101 19.6428 17.877 19.2523 17.4865L17.131 15.3651C16.7404 14.9746 16.1073 14.9746 15.7167 15.3651L15.3632 15.7187C14.9727 16.1092 14.9727 16.7424 15.3632 17.1329L17.4845 19.2542C17.875 19.6447 18.5082 19.6447 18.8987 19.2542Z" fill="#88BFFF"/>
<path d="M22 12.2598V11.7598C22 11.2075 21.5523 10.7598 21 10.7598H18C17.4477 10.7598 17 11.2075 17 11.7598V12.2598C17 12.8121 17.4477 13.2598 18 13.2598H21C21.5523 13.2598 22 12.8121 22 12.2598Z" fill="#5096FF"/>
<path d="M19.2562 5.11324L18.9026 4.75969C18.5121 4.36917 17.8789 4.36917 17.4884 4.75969L15.3671 6.88101C14.9766 7.27154 14.9766 7.9047 15.3671 8.29522L15.7206 8.64878C16.1112 9.0393 16.7443 9.0393 17.1349 8.64878L19.2562 6.52746C19.6467 6.13693 19.6467 5.50377 19.2562 5.11324Z" fill="#5096FF"/>
</svg>
