<svg width="24" height="24" viewBox="0 0 24 24" fill="none" xmlns="http://www.w3.org/2000/svg">
<path d="M19 8H5C3.89543 8 3 8.89543 3 10V20C3 21.1046 3.89543 22 5 22H19C20.1046 22 21 21.1046 21 20V10C21 8.89543 20.1046 8 19 8Z" fill="#FFC738"/>
<path d="M7 8V7C7 5.67392 7.52677 4.40216 8.46445 3.46448C9.40213 2.5268 10.6739 2 12 2C13.3261 2 14.5978 2.5268 15.5355 3.46448C16.4732 4.40216 17 5.67392 17 7V8" stroke="#737A83" stroke-width="2.5" stroke-miterlimit="10"/>
<path d="M12.25 13H11.75C11.1977 13 10.75 13.4477 10.75 14V16C10.75 16.5523 11.1977 17 11.75 17H12.25C12.8023 17 13.25 16.5523 13.25 16V14C13.25 13.4477 12.8023 13 12.25 13Z" fill="#737A83"/>
</svg>
