<svg width="24" height="24" viewBox="0 0 24 24" fill="none" xmlns="http://www.w3.org/2000/svg">
<path d="M10 10H14C15.3261 10 16.5978 10.5268 17.5355 11.4644C18.4732 12.4021 19 13.6739 19 15V21C19 21.5304 18.7893 22.0391 18.4142 22.4142C18.0391 22.7893 17.5304 23 17 23H7C6.46957 23 5.96086 22.7893 5.58578 22.4142C5.21071 22.0391 5 21.5304 5 21V15C5 13.6739 5.52677 12.4021 6.46445 11.4644C7.40213 10.5268 8.67392 10 10 10Z" fill="#6B758F"/>
<path d="M12 9C14.2091 9 16 7.20914 16 5C16 2.79086 14.2091 1 12 1C9.79086 1 8 2.79086 8 5C8 7.20914 9.79086 9 12 9Z" fill="#6B758F"/>
<path d="M11.25 12L10.25 17L12 19L13.75 17L12.75 12H11.25Z" fill="white"/>
</svg>
