<svg width="24" height="24" viewBox="0 0 24 24" fill="none" xmlns="http://www.w3.org/2000/svg">
<path d="M7.50031 23.0498C7.24425 23.0491 6.99102 22.9957 6.75641 22.8931C6.52181 22.7905 6.3108 22.6408 6.13642 22.4533C5.96204 22.2658 5.82802 22.0445 5.74268 21.8031C5.65734 21.5616 5.62246 21.3053 5.64026 21.0498L6.4303 9.96981C6.45046 9.7187 6.56461 9.48444 6.75001 9.31387C6.9354 9.14331 7.17838 9.049 7.4303 9.04981H7.57026C7.82218 9.049 8.06516 9.14331 8.25056 9.31387C8.43595 9.48444 8.55011 9.7187 8.57026 9.96981L9.37031 21.0498C9.38817 21.3061 9.35298 21.5633 9.26704 21.8054C9.18109 22.0475 9.04619 22.2693 8.87073 22.457C8.69528 22.6446 8.48305 22.7941 8.24726 22.8961C8.01147 22.9981 7.75722 23.0504 7.50031 23.0498Z" fill="#737A83"/>
<path d="M7.5 12.04C9.98528 12.04 12 9.57761 12 6.54004C12 3.50247 9.98528 1.04004 7.5 1.04004C5.01472 1.04004 3 3.50247 3 6.54004C3 9.57761 5.01472 12.04 7.5 12.04Z" fill="#C7CED5"/>
<path d="M15 23V2C15 1.73478 15.1053 1.48043 15.2928 1.29289C15.4804 1.10536 15.7348 1 16 1C16.2652 1 16.5196 1.10536 16.7071 1.29289C16.8946 1.48043 17 1.73478 17 2V23H15Z" fill="#C7CED5"/>
<path d="M18.5 23V2C18.5 1.73478 18.6053 1.48043 18.7928 1.29289C18.9804 1.10536 19.2348 1 19.5 1C19.7652 1 20.0196 1.10536 20.2071 1.29289C20.3946 1.48043 20.5 1.73478 20.5 2V23H18.5Z" fill="#C7CED5"/>
</svg>
