<svg width="24" height="24" viewBox="0 0 24 24" fill="none" xmlns="http://www.w3.org/2000/svg">
<path d="M8 2H18C18.5304 2 19.0392 2.21071 19.4142 2.58578C19.7893 2.96086 20 3.46957 20 4V20C20 20.5304 19.7893 21.0391 19.4142 21.4142C19.0392 21.7893 18.5304 22 18 22H6V4C6 3.46957 6.21074 2.96086 6.58582 2.58578C6.96089 2.21071 7.46957 2 8 2Z" fill="#707070"/>
<path d="M6 22C5.46957 22 4.96086 21.7893 4.58578 21.4142C4.21071 21.0391 4 20.5304 4 20V14.61C4.0011 14.2145 4.11941 13.8282 4.34 13.5L6 11V22Z" fill="#707070"/>
<path d="M18 4H16V9H18V4Z" fill="#FFF8B8"/>
<path d="M14 4H12V9H14V4Z" fill="#FFF8B8"/>
<path d="M10 4H8V9H10V4Z" fill="#FFF8B8"/>
</svg>
