<svg width="24" height="24" viewBox="0 0 24 24" fill="none" xmlns="http://www.w3.org/2000/svg">
<path d="M3.97949 6.00977V20.1198C4.00765 20.6309 4.23072 21.1118 4.60278 21.4634C4.97485 21.815 5.46758 22.0105 5.97949 22.0098H17.9795C18.4914 22.0105 18.9841 21.815 19.3562 21.4634C19.7283 21.1118 19.9513 20.6309 19.9795 20.1198V6.00977H3.97949Z" fill="#E7ECEF"/>
<path d="M19.9795 4.00977C19.9795 3.47933 19.7688 2.97062 19.3937 2.59555C19.0186 2.22048 18.5099 2.00977 17.9795 2.00977H5.97949C5.44906 2.00977 4.94035 2.22048 4.56528 2.59555C4.1902 2.97062 3.97949 3.47933 3.97949 4.00977V6.00977H19.9795V4.00977Z" fill="#FFC738"/>
<path d="M16.5833 9H7.41667C7.18655 9 7 9.22386 7 9.5V10.5C7 10.7761 7.18655 11 7.41667 11H16.5833C16.8135 11 17 10.7761 17 10.5V9.5C17 9.22386 16.8135 9 16.5833 9Z" fill="#C7CED5"/>
<path d="M16.5833 12.5H7.41667C7.18655 12.5 7 12.7239 7 13V14C7 14.2761 7.18655 14.5 7.41667 14.5H16.5833C16.8135 14.5 17 14.2761 17 14V13C17 12.7239 16.8135 12.5 16.5833 12.5Z" fill="#C7CED5"/>
<path d="M16.5833 16H7.41667C7.18655 16 7 16.2239 7 16.5V17.5C7 17.7761 7.18655 18 7.41667 18H16.5833C16.8135 18 17 17.7761 17 17.5V16.5C17 16.2239 16.8135 16 16.5833 16Z" fill="#C7CED5"/>
</svg>
