<svg width="24" height="24" viewBox="0 0 24 24" fill="none" xmlns="http://www.w3.org/2000/svg">
<path d="M12.5 1H11.5C9.29086 1 7.5 2.79086 7.5 5V12C7.5 14.2091 9.29086 16 11.5 16H12.5C14.7091 16 16.5 14.2091 16.5 12V5C16.5 2.79086 14.7091 1 12.5 1Z" fill="#707070"/>
<path fill-rule="evenodd" clip-rule="evenodd" d="M5.75 9.00977V12.0098C5.75 13.5347 6.35583 14.9973 7.43418 16.0757C8.51251 17.154 9.975 17.7598 11.5 17.7598H12.5C14.025 17.7598 15.4876 17.154 16.5659 16.0757C17.6442 14.9973 18.25 13.5348 18.25 12.0098V9.00977H20.75V12.0098C20.75 14.1978 19.8808 16.2962 18.3337 17.8434C16.7865 19.3906 14.688 20.2598 12.5 20.2598H11.5C9.31197 20.2598 7.21359 19.3906 5.66641 17.8434C4.11924 16.2963 3.25 14.1978 3.25 12.0098V9.00977H5.75Z" fill="#E2E2E2"/>
<path fill-rule="evenodd" clip-rule="evenodd" d="M13.25 18.5V23H10.75V18.5H13.25Z" fill="#E2E2E2"/>
</svg>
