<svg width="24" height="24" viewBox="0 0 24 24" fill="none" xmlns="http://www.w3.org/2000/svg">
<path d="M14 15H10V19H14V15Z" fill="#737A83"/>
<path d="M16 19H8C7.44772 19 7 19.4477 7 20C7 20.5523 7.44772 21 8 21H16C16.5523 21 17 20.5523 17 20C17 19.4477 16.5523 19 16 19Z" fill="#737A83"/>
<path d="M21 3H3C2.44772 3 2 3.44772 2 4V15C2 15.5523 2.44772 16 3 16H21C21.5523 16 22 15.5523 22 15V4C22 3.44772 21.5523 3 21 3Z" fill="#737A83"/>
<path d="M20 5H4V14H20V5Z" fill="url(#paint0_linear_397_5920)"/>
<defs>
<linearGradient id="paint0_linear_397_5920" x1="4.5" y1="5" x2="20" y2="14" gradientUnits="userSpaceOnUse">
<stop stop-color="#B8E7FB"/>
<stop offset="1" stop-color="#C1B8FB"/>
</linearGradient>
</defs>
</svg>
