<svg width="24" height="24" viewBox="0 0 24 24" fill="none" xmlns="http://www.w3.org/2000/svg">
<path fill-rule="evenodd" clip-rule="evenodd" d="M10.75 4C10.75 3.30964 11.3096 2.75 12 2.75H15.8242L22.1489 17.5076C22.4209 18.1421 22.1269 18.877 21.4924 19.1489C20.8579 19.4209 20.123 19.1269 19.8511 18.4924L14.1758 5.25H12C11.3096 5.25 10.75 4.69036 10.75 4Z" fill="#F57C75"/>
<path d="M14 17L17 11H19L21.57 17H14Z" fill="#F57C75"/>
<path d="M3 18.0098H12L10 13.0098H6C5.20435 13.0098 4.44129 13.3258 3.87868 13.8884C3.31607 14.4511 3 15.2141 3 16.0098V18.0098Z" fill="#F57C75"/>
<path d="M20 17H6V20H20V17Z" fill="#F57C75"/>
<path d="M5 22C6.65685 22 8 20.6569 8 19C8 17.3431 6.65685 16 5 16C3.34315 16 2 17.3431 2 19C2 20.6569 3.34315 22 5 22Z" fill="#737A83"/>
<path d="M20 22C21.6569 22 23 20.6569 23 19C23 17.3431 21.6569 16 20 16C18.3431 16 17 17.3431 17 19C17 20.6569 18.3431 22 20 22Z" fill="#737A83"/>
<path d="M6 7H2C1.44772 7 1 7.44772 1 8V12C1 12.5523 1.44772 13 2 13H6C6.55228 13 7 12.5523 7 12V8C7 7.44772 6.55228 7 6 7Z" fill="#C7CED5"/>
<path d="M10.1201 11H4.87012C4.31783 11 3.87012 11.4477 3.87012 12C3.87012 12.5523 4.31783 13 4.87012 13H10.1201C10.6724 13 11.1201 12.5523 11.1201 12C11.1201 11.4477 10.6724 11 10.1201 11Z" fill="#C7CED5"/>
</svg>
