<svg width="24" height="24" viewBox="0 0 24 24" fill="none" xmlns="http://www.w3.org/2000/svg">
<path d="M4.5 10H19.5V15.5C19.5 17.4891 18.7098 19.3968 17.3033 20.8033C15.8968 22.2098 13.9891 23 12 23C10.0109 23 8.10322 22.2098 6.6967 20.8033C5.29018 19.3968 4.5 17.4891 4.5 15.5V10Z" fill="#A0A6AB"/>
<path d="M12 1C13.9891 1 15.8968 1.79016 17.3033 3.19669C18.7098 4.60321 19.5 6.51088 19.5 8.5V10H4.5V8.5C4.5 6.51088 5.29018 4.60321 6.6967 3.19669C8.10322 1.79016 10.0109 1 12 1Z" fill="#E7ECEF"/>
<path d="M12.25 3.5H11.75C11.1977 3.5 10.75 3.94772 10.75 4.5V7.5C10.75 8.05228 11.1977 8.5 11.75 8.5H12.25C12.8023 8.5 13.25 8.05228 13.25 7.5V4.5C13.25 3.94772 12.8023 3.5 12.25 3.5Z" fill="#737A83"/>
</svg>
