<svg width="24" height="24" viewBox="0 0 24 24" fill="none" xmlns="http://www.w3.org/2000/svg">
<path fill-rule="evenodd" clip-rule="evenodd" d="M13.2607 4.37012V14.2501H10.7607V4.37012H13.2607Z" fill="#CBDFFF"/>
<path fill-rule="evenodd" clip-rule="evenodd" d="M13.7442 13.3467L5.66409 18.7334L4.27734 16.6533L12.3575 11.2666L13.7442 13.3467Z" fill="#CBDFFF"/>
<path fill-rule="evenodd" clip-rule="evenodd" d="M11.6641 11.2666L19.7442 16.6533L18.3575 18.7334L10.2773 13.3467L11.6641 11.2666Z" fill="#CBDFFF"/>
<path d="M15.0107 8V4C15.0107 3.44772 14.563 3 14.0107 3H10.0107C9.45846 3 9.01074 3.44772 9.01074 4V8C9.01074 8.55228 9.45846 9 10.0107 9H14.0107C14.563 9 15.0107 8.55228 15.0107 8Z" fill="#5096FF"/>
<path d="M9.01074 20V16C9.01074 15.4477 8.56303 15 8.01074 15H4.01074C3.45846 15 3.01074 15.4477 3.01074 16V20C3.01074 20.5523 3.45846 21 4.01074 21H8.01074C8.56303 21 9.01074 20.5523 9.01074 20Z" fill="#5096FF"/>
<path d="M21.0107 20V16C21.0107 15.4477 20.563 15 20.0107 15H16.0107C15.4585 15 15.0107 15.4477 15.0107 16V20C15.0107 20.5523 15.4585 21 16.0107 21H20.0107C20.563 21 21.0107 20.5523 21.0107 20Z" fill="#5096FF"/>
</svg>
