<svg width="24" height="24" viewBox="0 0 24 24" fill="none" xmlns="http://www.w3.org/2000/svg">
<path fill-rule="evenodd" clip-rule="evenodd" d="M10.75 16V7H13.25V16H10.75Z" fill="#E7ECEF"/>
<path fill-rule="evenodd" clip-rule="evenodd" d="M6.25 12.2598V16H3.75V11.5098C3.75 11.0458 3.9342 10.6006 4.26254 10.2723C4.59088 9.94396 5.03608 9.75977 5.5 9.75977H18.5C18.9641 9.75977 19.4092 9.94407 19.7374 10.2723C20.0655 10.6004 20.25 11.0455 20.25 11.5098V16H17.75V12.2598H6.25Z" fill="#E7ECEF"/>
<path d="M6.66667 16H3.33333C2.8731 16 2.5 16.3731 2.5 16.8333V20.1667C2.5 20.6269 2.8731 21 3.33333 21H6.66667C7.1269 21 7.5 20.6269 7.5 20.1667V16.8333C7.5 16.3731 7.1269 16 6.66667 16Z" fill="#737A83"/>
<path d="M13.6667 16H10.3333C9.8731 16 9.5 16.3731 9.5 16.8333V20.1667C9.5 20.6269 9.8731 21 10.3333 21H13.6667C14.1269 21 14.5 20.6269 14.5 20.1667V16.8333C14.5 16.3731 14.1269 16 13.6667 16Z" fill="#737A83"/>
<path d="M13.6667 2H10.3333C9.8731 2 9.5 2.3731 9.5 2.83333V6.16667C9.5 6.6269 9.8731 7 10.3333 7H13.6667C14.1269 7 14.5 6.6269 14.5 6.16667V2.83333C14.5 2.3731 14.1269 2 13.6667 2Z" fill="#737A83"/>
<path d="M20.6667 16H17.3333C16.8731 16 16.5 16.3731 16.5 16.8333V20.1667C16.5 20.6269 16.8731 21 17.3333 21H20.6667C21.1269 21 21.5 20.6269 21.5 20.1667V16.8333C21.5 16.3731 21.1269 16 20.6667 16Z" fill="#737A83"/>
</svg>
