<svg width="24" height="24" viewBox="0 0 24 24" fill="none" xmlns="http://www.w3.org/2000/svg">
<path d="M18 4H6C4.89543 4 4 4.89543 4 6V21C4 22.1046 4.89543 23 6 23H18C19.1046 23 20 22.1046 20 21V6C20 4.89543 19.1046 4 18 4Z" fill="#9C9188"/>
<path d="M15 4C15 2.34315 13.6569 1 12 1C10.3431 1 9 2.34315 9 4C9 5.65685 10.3431 7 12 7C13.6569 7 15 5.65685 15 4Z" fill="#E8E8E8"/>
<path d="M7 4H17V6C17 6.26522 16.8946 6.51957 16.7071 6.70711C16.5196 6.89464 16.2652 7 16 7H8C7.73478 7 7.48041 6.89464 7.29288 6.70711C7.10534 6.51957 7 6.26522 7 6V4Z" fill="#E8E8E8"/>
<path d="M12 5C12.5523 5 13 4.55228 13 4C13 3.44772 12.5523 3 12 3C11.4477 3 11 3.44772 11 4C11 4.55228 11.4477 5 12 5Z" fill="#9C9188"/>
</svg>
