<svg width="24" height="24" viewBox="0 0 24 24" fill="none" xmlns="http://www.w3.org/2000/svg">
<path d="M18.2605 9.98004L14.0205 5.74005L16.1405 0.790039L23.2105 7.86005L18.2605 9.98004Z" fill="#F4868F"/>
<path d="M16.14 7.86023L14.02 5.74023L6.95 7.15024L2.46001 20.4702L2 22.0002L3.52 21.5302L16.85 17.0502L18.26 9.98022L16.14 7.86023Z" fill="#E7ECEF"/>
<path d="M13.31 10.6901C13.1243 10.5041 12.9037 10.3566 12.6609 10.256C12.4181 10.1553 12.1578 10.1035 11.895 10.1035C11.6322 10.1035 11.3719 10.1553 11.1291 10.256C10.8863 10.3566 10.6657 10.5041 10.48 10.6901C10.2005 10.9722 10.0113 11.3311 9.93646 11.7211C9.86166 12.1111 9.90467 12.5146 10.06 12.8801L2.45999 20.4801L2 22.0001L3.51999 21.5401L11.12 13.9401C11.4855 14.0954 11.8889 14.1384 12.279 14.0636C12.669 13.9888 13.0279 13.7996 13.31 13.5201C13.496 13.3343 13.6435 13.1138 13.7441 12.871C13.8448 12.6282 13.8966 12.3679 13.8966 12.1051C13.8966 11.8422 13.8448 11.582 13.7441 11.3392C13.6435 11.0964 13.496 10.8758 13.31 10.6901Z" fill="#A0A6AB"/>
</svg>
