<svg width="24" height="24" viewBox="0 0 24 24" fill="none" xmlns="http://www.w3.org/2000/svg">
<path d="M20 6H4C2.89543 6 2 6.89543 2 8V15C2 16.1046 2.89543 17 4 17H20C21.1046 17 22 16.1046 22 15V8C22 6.89543 21.1046 6 20 6Z" fill="#737A83"/>
<path d="M7 2H17C17.2652 2 17.5196 2.10536 17.7071 2.29289C17.8946 2.48043 18 2.73478 18 3V6H6V3C6 2.73478 6.10536 2.48043 6.29289 2.29289C6.48043 2.10536 6.73478 2 7 2Z" fill="#E7ECEF"/>
<path d="M17 12H7C6.44772 12 6 12.4477 6 13V21C6 21.5523 6.44772 22 7 22H17C17.5523 22 18 21.5523 18 21V13C18 12.4477 17.5523 12 17 12Z" fill="#E7ECEF"/>
<path d="M14.5 14H9.5C9.22386 14 9 14.2239 9 14.5V15.5C9 15.7761 9.22386 16 9.5 16H14.5C14.7761 16 15 15.7761 15 15.5V14.5C15 14.2239 14.7761 14 14.5 14Z" fill="#C7CED5"/>
<path d="M14.5 17H9.5C9.22386 17 9 17.2239 9 17.5V18.5C9 18.7761 9.22386 19 9.5 19H14.5C14.7761 19 15 18.7761 15 18.5V17.5C15 17.2239 14.7761 17 14.5 17Z" fill="#C7CED5"/>
<path d="M20.25 9C20.25 8.30964 19.6904 7.75 19 7.75C18.3096 7.75 17.75 8.30964 17.75 9C17.75 9.69036 18.3096 10.25 19 10.25C19.6904 10.25 20.25 9.69036 20.25 9Z" fill="#7AD7B5"/>
</svg>
