<svg width="24" height="24" viewBox="0 0 24 24" fill="none" xmlns="http://www.w3.org/2000/svg">
<path d="M4 17H20C20.2652 17 20.5196 17.1053 20.7071 17.2929C20.8946 17.4804 21 17.7348 21 18V22H3V18C3 17.7348 3.10537 17.4804 3.29291 17.2929C3.48044 17.1053 3.73478 17 4 17Z" fill="#999999"/>
<path d="M7 3H17C17.2652 3 17.5196 3.10536 17.7071 3.29289C17.8946 3.48043 18 3.73478 18 4V7H6V4C6 3.73478 6.10537 3.48043 6.29291 3.29289C6.48044 3.10536 6.73478 3 7 3Z" fill="#707070"/>
<path d="M14 18H10V22H14V18Z" fill="#707070"/>
<path d="M20 7H4V17H20V7Z" fill="#E8E8E8"/>
<path d="M20 5H4C3.44772 5 3 5.44772 3 6C3 6.55228 3.44772 7 4 7H20C20.5523 7 21 6.55228 21 6C21 5.44772 20.5523 5 20 5Z" fill="#999999"/>
<path d="M12.75 8.75H11.25C10.9739 8.75 10.75 8.97386 10.75 9.25V10.75C10.75 11.0261 10.9739 11.25 11.25 11.25H12.75C13.0261 11.25 13.25 11.0261 13.25 10.75V9.25C13.25 8.97386 13.0261 8.75 12.75 8.75Z" fill="#707070"/>
<path d="M16.75 8.75H15.25C14.9739 8.75 14.75 8.97386 14.75 9.25V10.75C14.75 11.0261 14.9739 11.25 15.25 11.25H16.75C17.0261 11.25 17.25 11.0261 17.25 10.75V9.25C17.25 8.97386 17.0261 8.75 16.75 8.75Z" fill="#707070"/>
<path d="M8.75 8.75H7.25C6.97386 8.75 6.75 8.97386 6.75 9.25V10.75C6.75 11.0261 6.97386 11.25 7.25 11.25H8.75C9.02614 11.25 9.25 11.0261 9.25 10.75V9.25C9.25 8.97386 9.02614 8.75 8.75 8.75Z" fill="#707070"/>
<path d="M12.75 12.75H11.25C10.9739 12.75 10.75 12.9739 10.75 13.25V14.75C10.75 15.0261 10.9739 15.25 11.25 15.25H12.75C13.0261 15.25 13.25 15.0261 13.25 14.75V13.25C13.25 12.9739 13.0261 12.75 12.75 12.75Z" fill="#707070"/>
<path d="M16.75 12.75H15.25C14.9739 12.75 14.75 12.9739 14.75 13.25V14.75C14.75 15.0261 14.9739 15.25 15.25 15.25H16.75C17.0261 15.25 17.25 15.0261 17.25 14.75V13.25C17.25 12.9739 17.0261 12.75 16.75 12.75Z" fill="#707070"/>
<path d="M8.75 12.75H7.25C6.97386 12.75 6.75 12.9739 6.75 13.25V14.75C6.75 15.0261 6.97386 15.25 7.25 15.25H8.75C9.02614 15.25 9.25 15.0261 9.25 14.75V13.25C9.25 12.9739 9.02614 12.75 8.75 12.75Z" fill="#707070"/>
</svg>
