<svg width="24" height="24" viewBox="0 0 24 24" fill="none" xmlns="http://www.w3.org/2000/svg">
<path d="M22 12C22 6.47715 17.5228 2 12 2C6.47715 2 2 6.47715 2 12C2 17.5228 6.47715 22 12 22C17.5228 22 22 17.5228 22 12Z" fill="#737A83"/>
<path fill-rule="evenodd" clip-rule="evenodd" d="M11.5212 8.33709C10.6934 8.56544 10.25 9.11464 10.25 9.73298H7.75C7.75 7.65788 9.30198 6.35591 10.8564 5.9271C12.3917 5.50358 14.3687 5.79874 15.5344 7.35827C16.0144 7.98376 16.2678 8.75334 16.249 9.54264C16.2302 10.3358 15.9378 11.0961 15.4243 11.6998L15.3976 11.7311L15.369 11.7606C14.8881 12.256 14.2417 12.57 13.8507 12.7599C13.7836 12.7925 13.724 12.8215 13.674 12.8471C13.2648 13.0567 13.1419 13.1742 13.0807 13.2882L13.0804 13.2919V13.9999H10.5804V13.2818C10.5819 12.9422 10.6517 12.607 10.7851 12.2954L10.7926 12.2778L10.8007 12.2604C11.2343 11.3279 12.0171 10.8869 12.5342 10.622C12.6635 10.5557 12.776 10.4994 12.8748 10.45C13.223 10.2756 13.4005 10.1867 13.5457 10.0485C13.6747 9.88357 13.7449 9.68551 13.7497 9.48319C13.7549 9.26784 13.6857 9.05434 13.5491 8.87757L13.5418 8.86821L13.5348 8.8587C13.1523 8.34394 12.3651 8.10431 11.5212 8.33709Z" fill="white"/>
<path d="M12 18.3604C12.8284 18.3604 13.5 17.6888 13.5 16.8604C13.5 16.0319 12.8284 15.3604 12 15.3604C11.1716 15.3604 10.5 16.0319 10.5 16.8604C10.5 17.6888 11.1716 18.3604 12 18.3604Z" fill="white"/>
</svg>
