<svg width="24" height="24" viewBox="0 0 24 24" fill="none" xmlns="http://www.w3.org/2000/svg">
<g clip-path="url(#clip0_397_6018)">
<mask id="mask0_397_6018" style="mask-type:luminance" maskUnits="userSpaceOnUse" x="0" y="0" width="24" height="24">
<path d="M24 0H0V24H24V0Z" fill="white"/>
</mask>
<g mask="url(#mask0_397_6018)">
<path d="M14.7424 2.62731C14.2641 2.35117 13.6525 2.51504 13.3764 2.99334C13.1002 3.47162 13.2641 4.08321 13.7424 4.35935L19.8046 7.85935C20.2829 8.13549 20.8945 7.97162 21.1706 7.49333C21.4467 7.01503 21.2829 6.40344 20.8046 6.1273L14.7424 2.62731Z" fill="#707070"/>
<path d="M20 6H4C2.89543 6 2 6.89543 2 8V18C2 19.1046 2.89543 20 4 20H20C21.1046 20 22 19.1046 22 18V8C22 6.89543 21.1046 6 20 6Z" fill="#C7CED5"/>
<path d="M12 11.5V10.5C12 10.2239 11.7761 10 11.5 10H5.5C5.22386 10 5 10.2239 5 10.5V11.5C5 11.7761 5.22386 12 5.5 12H11.5C11.7761 12 12 11.7761 12 11.5Z" fill="#E7ECEF"/>
<path d="M12 15.5V14.5C12 14.2239 11.7761 14 11.5 14H5.5C5.22386 14 5 14.2239 5 14.5V15.5C5 15.7761 5.22386 16 5.5 16H11.5C11.7761 16 12 15.7761 12 15.5Z" fill="#E7ECEF"/>
<path d="M17 16C18.6569 16 20 14.6569 20 13C20 11.3431 18.6569 10 17 10C15.3431 10 14 11.3431 14 13C14 14.6569 15.3431 16 17 16Z" fill="#707070"/>
</g>
</g>
<defs>
<clipPath id="clip0_397_6018">
<rect width="24" height="24" fill="white"/>
</clipPath>
</defs>
</svg>
