<svg width="24" height="24" viewBox="0 0 24 24" fill="none" xmlns="http://www.w3.org/2000/svg">
<g clip-path="url(#clip0_397_6028)">
<mask id="mask0_397_6028" style="mask-type:luminance" maskUnits="userSpaceOnUse" x="0" y="0" width="24" height="24">
<path d="M24 0H0V24H24V0Z" fill="white"/>
</mask>
<g mask="url(#mask0_397_6028)">
<path d="M15 9L21 3V9H15Z" fill="#6B758F"/>
<path fill-rule="evenodd" clip-rule="evenodd" d="M12.0084 4.5C11.0233 4.49888 10.0478 4.69207 9.13742 5.0685C8.22714 5.44494 7.40005 5.99724 6.70352 6.69377C6.00699 7.39031 5.45469 8.21739 5.07825 9.12766C4.70181 10.0379 4.50864 11.0135 4.50976 11.9986L4.50977 12C4.50977 12.9843 4.70379 13.959 5.08074 14.8683C5.45769 15.7776 6.01015 16.6037 6.70656 17.2993C7.40297 17.9949 8.22969 18.5464 9.13941 18.9223C10.0492 19.2982 11.0241 19.4911 12.0084 19.49H12.0098C13.9963 19.49 15.9014 18.7009 17.306 17.2962C18.7107 15.8916 19.4998 13.9865 19.4998 12H21.9998C21.9998 14.6495 20.9473 17.1905 19.0738 19.064C17.2007 20.9371 14.6602 21.9896 12.0112 21.99M12.01 2.00001C10.6966 1.99867 9.39575 2.25633 8.18204 2.75826C6.96793 3.26034 5.86478 3.99699 4.93576 4.92601C4.00674 5.85502 3.27009 6.95816 2.768 8.17228C2.266 9.38617 2.00836 10.6871 2.00977 12.0007C2.00986 13.3134 2.26865 14.6131 2.77131 15.8257C3.27407 17.0384 4.01093 18.1402 4.9398 19.068C5.86868 19.9959 6.97133 20.7315 8.18469 21.2328C9.39761 21.734 10.6974 21.9913 12.0098 21.99M12.01 2.00001C13.322 1.99897 14.6213 2.25689 15.8334 2.75901C17.046 3.26129 18.1474 3.99804 19.0745 4.92698L17.3051 6.69303C16.6104 5.99701 15.7852 5.44501 14.8767 5.06869C13.9682 4.69235 12.9943 4.4991 12.011 4.50001L12.0084 4.5" fill="#6B758F"/>
</g>
</g>
<defs>
<clipPath id="clip0_397_6028">
<rect width="24" height="24" fill="white"/>
</clipPath>
</defs>
</svg>
