<svg width="24" height="24" viewBox="0 0 24 24" fill="none" xmlns="http://www.w3.org/2000/svg">
<path d="M9 8L4 3V8H9Z" fill="#A0A6AB"/>
<path fill-rule="evenodd" clip-rule="evenodd" d="M11.9998 2.00977C13.3122 2.00843 14.6121 2.2657 15.8251 2.76693C17.0384 3.2683 18.1411 4.00391 19.07 4.93172C19.9988 5.85953 20.7357 6.96134 21.2385 8.17412C21.7412 9.38691 22 10.6869 22 11.9998C22 14.6519 20.9464 17.1955 19.0711 19.0708C17.1957 20.9462 14.6522 21.9998 12 21.9998C9.34784 21.9998 6.8043 20.9462 4.92893 19.0708C3.05357 17.1955 2 14.6519 2 11.9998H4.5C4.5 13.9889 5.29018 15.8966 6.6967 17.3031C8.10322 18.7096 10.0109 19.4998 12 19.4998C13.9891 19.4998 15.8968 18.7096 17.3033 17.3031C18.7098 15.8966 19.5 13.9889 19.5 11.9998C19.5 11.0154 19.306 10.0408 18.929 9.13149C18.5521 8.2222 17.9996 7.39611 17.3032 6.7005C16.6068 6.00488 15.7801 5.45335 14.8704 5.07745C13.9606 4.70154 12.9858 4.50864 12.0014 4.50977H11.9991C11.0133 4.50903 10.0372 4.70391 9.12732 5.08315C8.21744 5.46239 7.39187 6.01844 6.69843 6.71907L4.92157 4.96045C5.84768 4.02472 6.9503 3.28207 8.16552 2.77557C9.38039 2.26921 10.6836 2.00894 11.9998 2.00977Z" fill="#A0A6AB"/>
<path fill-rule="evenodd" clip-rule="evenodd" d="M10.75 8H13.25V11.8743L16.089 13.9993L14.5909 16.0007L10.75 13.1257V8Z" fill="#A0A6AB"/>
</svg>
