<svg width="24" height="24" viewBox="0 0 24 24" fill="none" xmlns="http://www.w3.org/2000/svg">
<path d="M21 5H3C2.44772 5 2 5.44772 2 6V19C2 19.5523 2.44772 20 3 20H21C21.5523 20 22 19.5523 22 19V6C22 5.44772 21.5523 5 21 5Z" fill="#707070"/>
<path d="M10 3H14C14.2652 3 14.5196 3.10537 14.7071 3.29291C14.8946 3.48044 15 3.73478 15 4V5H9V4C9 3.73478 9.10534 3.48044 9.29288 3.29291C9.48041 3.10537 9.73478 3 10 3Z" fill="#707070"/>
<path d="M21 5.00977H3C2.73478 5.00977 2.48043 5.11512 2.29289 5.30266C2.10536 5.49019 2 5.74455 2 6.00977V12.0098C2 12.5402 2.21071 13.0489 2.58578 13.424C2.96086 13.7991 3.46957 14.0098 4 14.0098H20C20.5304 14.0098 21.0391 13.7991 21.4142 13.424C21.7893 13.0489 22 12.5402 22 12.0098V6.00977C22 5.74455 21.8946 5.49019 21.7071 5.30266C21.5196 5.11512 21.2652 5.00977 21 5.00977Z" fill="#9C9188"/>
<path d="M7 9H5V12H7V9Z" fill="white"/>
<path d="M19 9H17V12H19V9Z" fill="white"/>
</svg>
