<svg width="24" height="24" viewBox="0 0 24 24" fill="none" xmlns="http://www.w3.org/2000/svg">
<path d="M21.25 18V5H18.75V18H21.25Z" fill="#FFC738"/>
<path d="M9.00035 18.0099C9.00167 17.4023 8.88314 16.8005 8.65155 16.2388C8.41996 15.6771 8.07986 15.1667 7.65073 14.7366C7.22159 14.3065 6.71183 13.9653 6.15065 13.7325C5.58947 13.4997 4.98789 13.3799 4.38034 13.3799C3.37932 13.3835 2.40681 13.7135 1.61035 14.3199L4.38034 18.0099H9.00035Z" fill="#FFC738"/>
<path d="M19 16.75H3V19.25H19V16.75Z" fill="#FFC738"/>
<path d="M3.99991 20.83C5.56287 20.83 6.82993 19.5629 6.82993 17.9999C6.82993 16.437 5.56287 15.1699 3.99991 15.1699C2.43694 15.1699 1.16992 16.437 1.16992 17.9999C1.16992 19.5629 2.43694 20.83 3.99991 20.83Z" fill="#737A83"/>
<path d="M20 21C21.6569 21 23 19.6569 23 18C23 16.3431 21.6569 15 20 15C18.3431 15 17 16.3431 17 18C17 19.6569 18.3431 21 20 21Z" fill="#737A83"/>
<path d="M15 2.75H20.25C20.5152 2.75 20.7696 2.85537 20.9571 3.04291C21.1446 3.23044 21.25 3.48478 21.25 3.75V5.25H15C14.7348 5.25 14.4804 5.14463 14.2929 4.95709C14.1054 4.76956 14 4.51522 14 4.25V3.75C14 3.48478 14.1054 3.23044 14.2929 3.04291C14.4804 2.85537 14.7348 2.75 15 2.75Z" fill="#737A83"/>
</svg>
