<svg width="24" height="24" viewBox="0 0 24 24" fill="none" xmlns="http://www.w3.org/2000/svg">
<path d="M10.5 17.21C14.2059 17.21 17.2101 14.2059 17.2101 10.5C17.2101 6.79422 14.2059 3.79004 10.5 3.79004C6.7942 3.79004 3.79004 6.79422 3.79004 10.5C3.79004 14.2059 6.7942 17.21 10.5 17.21Z" fill="#EFF7FF"/>
<path d="M10.5 4.5C12.0913 4.5 13.6174 5.13214 14.7426 6.25735C15.8678 7.38257 16.5 8.9087 16.5 10.5C16.5 12.0913 15.8678 13.6174 14.7426 14.7426C13.6174 15.8679 12.0913 16.5 10.5 16.5C8.9087 16.5 7.38257 15.8679 6.25735 14.7426C5.13214 13.6174 4.5 12.0913 4.5 10.5C4.5 8.9087 5.13214 7.38257 6.25735 6.25735C7.38257 5.13214 8.9087 4.5 10.5 4.5ZM10.5 2C8.24647 2.00265 6.08599 2.89904 4.49251 4.49252C2.89902 6.08601 2.00265 8.24647 2 10.5C2 11.6162 2.21985 12.7215 2.64702 13.7528C3.07418 14.7841 3.7003 15.7211 4.48959 16.5104C5.27889 17.2997 6.21592 17.9258 7.24719 18.353C8.27846 18.7801 9.38376 19 10.5 19C11.6166 19.0013 12.7225 18.7824 13.7544 18.3557C14.7862 17.929 15.7238 17.3029 16.5133 16.5133C17.3029 15.7238 17.929 14.7862 18.3557 13.7544C18.7824 12.7225 19.0013 11.6166 19 10.5C19 8.24566 18.1045 6.08365 16.5104 4.48959C14.9163 2.89553 12.7543 2 10.5 2Z" fill="#737A83"/>
<path fill-rule="evenodd" clip-rule="evenodd" d="M16.4852 14.707L21.8852 20.117L20.1158 21.8831L14.7158 16.4731L16.4852 14.707Z" fill="#737A83"/>
</svg>
