<svg width="24" height="24" viewBox="0 0 24 24" fill="none" xmlns="http://www.w3.org/2000/svg">
<path d="M19.5 3H4.5C3.94772 3 3.5 3.44772 3.5 4V7C3.5 7.55228 3.94772 8 4.5 8H19.5C20.0523 8 20.5 7.55228 20.5 7V4C20.5 3.44772 20.0523 3 19.5 3Z" fill="#707070"/>
<path d="M11.5 4.5H5.5C5.22386 4.5 5 4.72386 5 5V6C5 6.27614 5.22386 6.5 5.5 6.5H11.5C11.7761 6.5 12 6.27614 12 6V5C12 4.72386 11.7761 4.5 11.5 4.5Z" fill="#E8E8E8"/>
<path d="M17.5 6.75C18.1904 6.75 18.75 6.19036 18.75 5.5C18.75 4.80964 18.1904 4.25 17.5 4.25C16.8096 4.25 16.25 4.80964 16.25 5.5C16.25 6.19036 16.8096 6.75 17.5 6.75Z" fill="#84CA00"/>
<path d="M19.5 9.5H4.5C3.94772 9.5 3.5 9.94772 3.5 10.5V13.5C3.5 14.0523 3.94772 14.5 4.5 14.5H19.5C20.0523 14.5 20.5 14.0523 20.5 13.5V10.5C20.5 9.94772 20.0523 9.5 19.5 9.5Z" fill="#707070"/>
<path d="M17.5 13.25C18.1904 13.25 18.75 12.6904 18.75 12C18.75 11.3096 18.1904 10.75 17.5 10.75C16.8096 10.75 16.25 11.3096 16.25 12C16.25 12.6904 16.8096 13.25 17.5 13.25Z" fill="#FFA36F"/>
<path d="M19.5 16H4.5C3.94772 16 3.5 16.4477 3.5 17V20C3.5 20.5523 3.94772 21 4.5 21H19.5C20.0523 21 20.5 20.5523 20.5 20V17C20.5 16.4477 20.0523 16 19.5 16Z" fill="#707070"/>
<path d="M17.5 19.75C18.1904 19.75 18.75 19.1904 18.75 18.5C18.75 17.8096 18.1904 17.25 17.5 17.25C16.8096 17.25 16.25 17.8096 16.25 18.5C16.25 19.1904 16.8096 19.75 17.5 19.75Z" fill="#84CA00"/>
<path d="M11.5 11H5.5C5.22386 11 5 11.2239 5 11.5V12.5C5 12.7761 5.22386 13 5.5 13H11.5C11.7761 13 12 12.7761 12 12.5V11.5C12 11.2239 11.7761 11 11.5 11Z" fill="#E8E8E8"/>
<path d="M11.5 17.5H5.5C5.22386 17.5 5 17.7239 5 18V19C5 19.2761 5.22386 19.5 5.5 19.5H11.5C11.7761 19.5 12 19.2761 12 19V18C12 17.7239 11.7761 17.5 11.5 17.5Z" fill="#E8E8E8"/>
</svg>
