<svg width="24" height="24" viewBox="0 0 24 24" fill="none" xmlns="http://www.w3.org/2000/svg">
<path d="M12 19.75C16.2802 19.75 19.75 16.2802 19.75 12C19.75 7.71979 16.2802 4.25 12 4.25C7.71979 4.25 4.25 7.71979 4.25 12C4.25 16.2802 7.71979 19.75 12 19.75Z" fill="#C7CED5"/>
<path d="M10 2H14C14.2652 2 14.5196 2.10536 14.7071 2.29289C14.8946 2.48043 15 2.73478 15 3V5H9V3C9 2.73478 9.10536 2.48043 9.29289 2.29289C9.48043 2.10536 9.73478 2 10 2Z" fill="#C7CED5"/>
<path d="M2.34099 8.73949L4.34099 5.27539C4.4736 5.04571 4.69204 4.8781 4.94822 4.80946C5.2044 4.74082 5.47733 4.77676 5.70702 4.90937L7.43907 5.90937L4.43907 11.1056L2.70702 10.1056C2.47733 9.97291 2.30975 9.75449 2.24111 9.49831C2.17247 9.24213 2.20838 8.96918 2.34099 8.73949Z" fill="#C7CED5"/>
<path d="M4.34198 18.7393L2.34198 15.2752C2.20937 15.0456 2.17344 14.7726 2.24208 14.5164C2.31072 14.2602 2.47832 14.0418 2.708 13.9092L4.44005 12.9092L7.44005 18.1054L5.708 19.1054C5.47832 19.238 5.20537 19.2739 4.94919 19.2052C4.69301 19.1366 4.47459 18.969 4.34198 18.7393Z" fill="#C7CED5"/>
<path d="M13.9902 22H9.99023C9.72502 22 9.47068 21.8946 9.28314 21.7071C9.09561 21.5196 8.99023 21.2652 8.99023 21V19H14.9902V21C14.9902 21.2652 14.8849 21.5196 14.6974 21.7071C14.5098 21.8946 14.2555 22 13.9902 22Z" fill="#C7CED5"/>
<path d="M21.6538 15.2762L19.6538 18.7403C19.5212 18.97 19.3028 19.1376 19.0466 19.2062C18.7904 19.2749 18.5175 19.2389 18.2878 19.1063L16.5557 18.1063L19.5557 12.9102L21.2878 13.9102C21.5175 14.0428 21.6851 14.2612 21.7537 14.5174C21.8223 14.7735 21.7864 15.0465 21.6538 15.2762Z" fill="#C7CED5"/>
<path d="M19.6547 5.27635L21.6547 8.74045C21.7873 8.97014 21.8232 9.24311 21.7546 9.49929C21.6859 9.75547 21.5184 9.97387 21.2887 10.1065L19.5566 11.1065L16.5566 5.91033L18.2887 4.91033C18.5184 4.77772 18.7913 4.7418 19.0475 4.81045C19.3037 4.87909 19.5221 5.04667 19.6547 5.27635Z" fill="#C7CED5"/>
<path d="M12 14.5C13.3807 14.5 14.5 13.3807 14.5 12C14.5 10.6193 13.3807 9.5 12 9.5C10.6193 9.5 9.5 10.6193 9.5 12C9.5 13.3807 10.6193 14.5 12 14.5Z" fill="white"/>
</svg>
