<svg width="24" height="24" viewBox="0 0 24 24" fill="none" xmlns="http://www.w3.org/2000/svg">
<path d="M15.0107 11.0098L12.0107 14.0098H2.01074C1.74553 14.0098 1.49117 14.1151 1.30363 14.3027C1.1161 14.4902 1.01074 14.7445 1.01074 15.0098V19.0098C1.01074 19.5402 1.22145 20.0489 1.59653 20.424C1.9716 20.799 2.48031 21.0098 3.01074 21.0098H14.0107C16.3977 21.0098 18.6869 20.0616 20.3747 18.3737C22.0625 16.6859 23.0107 14.3967 23.0107 12.0098V11.0098H15.0107Z" fill="#E2E2E2"/>
<path d="M4.03027 6H10.0303C10.2955 6 10.5498 6.10537 10.7374 6.29291C10.9249 6.48044 11.0303 6.73478 11.0303 7V14H3.03027V7C3.03027 6.73478 3.13564 6.48044 3.32318 6.29291C3.51072 6.10537 3.76506 6 4.03027 6Z" fill="#737A83"/>
<path d="M8.01074 3H6.01074V6H8.01074V3Z" fill="#F57C75"/>
</svg>
