<svg width="24" height="24" viewBox="0 0 24 24" fill="none" xmlns="http://www.w3.org/2000/svg">
<path fill-rule="evenodd" clip-rule="evenodd" d="M9.08713 5.1863C8.22477 6.07362 7.35636 7.50784 6.75907 9.28942L6.75583 9.29908C5.74071 12.2471 5.75082 14.3786 6.11821 15.8816C6.19033 15.7845 6.26214 15.686 6.33363 15.5863C7.83437 13.4925 9.07572 10.9906 9.82993 8.74632C10.6235 6.319 10.612 5.03466 10.5031 4.44085C10.4912 4.376 10.4782 4.31971 10.465 4.27121C10.1689 4.32988 9.70447 4.5511 9.08713 5.1863ZM11.2034 3.09702L11.8896 2.05223L11.7629 1.96902L11.62 1.9185C9.98603 1.34081 8.39869 2.30761 7.29433 3.44393C6.11804 4.65426 5.07951 6.4364 4.39037 8.48988C3.02881 12.4467 3.21181 15.4086 4.0253 17.561C4.08907 17.7297 4.15637 17.8926 4.22662 18.0496C3.33642 18.8965 2.43662 19.5102 1.57227 19.8254L2.42876 22.1741C3.54685 21.7664 4.61007 21.0654 5.59611 20.1867C6.10837 20.7672 6.60951 21.1683 6.97417 21.4204L6.97737 21.4226C7.34556 21.6754 7.79585 21.7841 8.24228 21.7227C8.68817 21.6614 9.09059 21.4361 9.3766 21.0974L11.5987 18.4179L12.2457 20.4046C12.338 20.6919 12.505 20.9522 12.7329 21.1565C12.9629 21.3626 13.2459 21.5035 13.5528 21.561C13.8601 21.6186 14.1766 21.5898 14.4677 21.4786C14.7585 21.3676 15.0109 21.1795 15.2003 20.9377L15.2095 20.9259L16.9503 18.5894L17.5178 20.443L17.5213 20.4543C17.6131 20.7442 17.7809 21.007 18.0105 21.2128C18.2405 21.4189 18.5235 21.5598 18.8304 21.6173C19.1377 21.6749 19.4542 21.646 19.7453 21.5349C20.0361 21.4238 20.2885 21.2358 20.4779 20.9939L20.4877 20.9814L23.0041 17.5929L20.997 16.1024L19.4437 18.194L18.8772 16.3436C18.7899 16.0477 18.6233 15.7781 18.3915 15.567C18.1556 15.352 17.862 15.2067 17.5436 15.1516C17.2248 15.0965 16.8978 15.1347 16.6013 15.2604C16.3131 15.3825 16.0675 15.5811 15.8881 15.8307L14.1466 18.1681L13.5285 16.2706C13.4406 15.985 13.2783 15.7247 13.0548 15.5191C12.8244 15.3071 12.5386 15.1622 12.2281 15.1032C11.9174 15.0441 11.5966 15.074 11.3022 15.1891C11.0201 15.2994 10.7758 15.4826 10.5915 15.716L7.89674 18.9656C7.72076 18.8058 7.52904 18.61 7.33627 18.3745C7.69494 17.9455 8.03855 17.499 8.36558 17.0427C10.0194 14.7354 11.3722 12.0069 12.2014 9.53753L12.2045 9.52827C13.0697 6.88371 13.1746 5.148 12.962 3.98962C12.8541 3.40181 12.664 2.96192 12.451 2.63908C12.3454 2.4791 12.2379 2.35348 12.1392 2.25658C12.0901 2.20833 12.0436 2.16772 12.0014 2.13387C11.9803 2.11696 11.9603 2.10178 11.9416 2.0882C11.9323 2.08142 11.9233 2.07504 11.9146 2.06905L11.9018 2.06035L11.8957 2.05622L11.8926 2.05421C11.8926 2.05421 11.8896 2.05223 11.2034 3.09702Z" fill="#6B758F"/>
</svg>
