<svg width="24" height="24" viewBox="0 0 24 24" fill="none" xmlns="http://www.w3.org/2000/svg">
<path d="M17 1H7C5.89543 1 5 1.89543 5 3V21C5 22.1046 5.89543 23 7 23H17C18.1046 23 19 22.1046 19 21V3C19 1.89543 18.1046 1 17 1Z" fill="#707070"/>
<path d="M17 5H7V18H17V5Z" fill="white"/>
<path d="M14 2.5H10V3.5H14V2.5Z" fill="#C7CED5"/>
<path d="M12 22C12.8284 22 13.5 21.3284 13.5 20.5C13.5 19.6716 12.8284 19 12 19C11.1716 19 10.5 19.6716 10.5 20.5C10.5 21.3284 11.1716 22 12 22Z" fill="#C7CED5"/>
</svg>
