<svg width="24" height="24" viewBox="0 0 24 24" fill="none" xmlns="http://www.w3.org/2000/svg">
<path d="M4 7H8V17H4C3.73478 17 3.48044 16.8946 3.29291 16.7071C3.10537 16.5196 3 16.2652 3 16V8C3 7.73478 3.10537 7.48041 3.29291 7.29288C3.48044 7.10534 3.73478 7 4 7Z" fill="#737A83"/>
<path d="M8 7L14 2V22L8 17V7Z" fill="#737A83"/>
<path d="M23.0001 12.0105C22.9951 10.581 22.6837 9.16914 22.0868 7.87019C21.49 6.57124 20.6215 5.41536 19.5401 4.48047L18.1201 5.89046C19.018 6.63832 19.7412 7.5738 20.2387 8.63112C20.7363 9.68844 20.9962 10.8419 21.0001 12.0105C20.9947 13.1773 20.7341 14.3289 20.2366 15.3843C19.7391 16.4398 19.0167 17.3737 18.1201 18.1205L19.5401 19.5305C20.6203 18.5967 21.4879 17.4424 22.0848 16.1453C22.6816 14.8482 22.9937 13.4383 23.0001 12.0105Z" fill="#88BFFF"/>
<path d="M19.0005 12.0103C18.9943 11.1049 18.7832 10.2127 18.3832 9.40048C17.9831 8.58826 17.4045 7.87711 16.6905 7.32031L15.2705 8.75031C15.7995 9.11484 16.2328 9.60142 16.534 10.1689C16.8351 10.7363 16.9951 11.3679 17.0005 12.0103C16.9903 12.6476 16.828 13.2732 16.5271 13.8351C16.2262 14.3969 15.7953 14.8787 15.2705 15.2403L16.6905 16.6603C17.3992 16.1077 17.9747 15.403 18.3745 14.5981C18.7744 13.7933 18.9883 12.9089 19.0005 12.0103Z" fill="#88BFFF"/>
</svg>
