<svg width="24" height="24" viewBox="0 0 24 24" fill="none" xmlns="http://www.w3.org/2000/svg">
<path d="M16 2H8C6.34315 2 5 3.34315 5 5V15C5 16.6569 6.34315 18 8 18H16C17.6569 18 19 16.6569 19 15V5C19 3.34315 17.6569 2 16 2Z" fill="#6B758F"/>
<path d="M15.1599 5H8.83984C8.28756 5 7.83984 5.44772 7.83984 6V9C7.83984 9.55228 8.28756 10 8.83984 10H15.1599C15.7121 10 16.1599 9.55228 16.1599 9V6C16.1599 5.44772 15.7121 5 15.1599 5Z" fill="white"/>
<path d="M15.5 16C16.3284 16 17 15.3284 17 14.5C17 13.6716 16.3284 13 15.5 13C14.6716 13 14 13.6716 14 14.5C14 15.3284 14.6716 16 15.5 16Z" fill="white"/>
<path d="M8.5 16C9.32843 16 10 15.3284 10 14.5C10 13.6716 9.32843 13 8.5 13C7.67157 13 7 13.6716 7 14.5C7 15.3284 7.67157 16 8.5 16Z" fill="white"/>
<path d="M8 18L3 23H7L12 18H8Z" fill="#E7ECEF"/>
<path d="M16.0303 18L21.0303 23H17.0303L12.0303 18H16.0303Z" fill="#E7ECEF"/>
<path d="M16 18H8V20.5H16V18Z" fill="#E7ECEF"/>
</svg>
