<svg width="24" height="24" viewBox="0 0 24 24" fill="none" xmlns="http://www.w3.org/2000/svg">
<path d="M12.9204 2H21.0004C21.2656 2 21.52 2.10534 21.7075 2.29288C21.8951 2.48041 22.0004 2.73478 22.0004 3V11.07C22.0006 11.3339 21.9486 11.5952 21.8473 11.839C21.7461 12.0827 21.5976 12.3039 21.4104 12.49L11.4104 22.49C11.2247 22.6759 11.0041 22.8235 10.7613 22.9241C10.5185 23.0248 10.2583 23.0766 9.99542 23.0766C9.73259 23.0766 9.47232 23.0248 9.22952 22.9241C8.98673 22.8235 8.76616 22.6759 8.58041 22.49L1.51041 15.42C1.32445 15.2342 1.17694 15.0137 1.07629 14.7709C0.975645 14.5281 0.923828 14.2678 0.923828 14.005C0.923828 13.7422 0.975645 13.4819 1.07629 13.2391C1.17694 12.9963 1.32445 12.7757 1.51041 12.59L11.5104 2.59C11.8838 2.21441 12.3908 2.00223 12.9204 2Z" fill="#7AD7B5"/>
<path d="M16.3398 9.66016C17.4444 9.66016 18.3398 8.76473 18.3398 7.66016C18.3398 6.55559 17.4444 5.66016 16.3398 5.66016C15.2353 5.66016 14.3398 6.55559 14.3398 7.66016C14.3398 8.76473 15.2353 9.66016 16.3398 9.66016Z" fill="white"/>
</svg>
