<svg width="24" height="24" viewBox="0 0 24 24" fill="none" xmlns="http://www.w3.org/2000/svg">
<path d="M6 9C7.06087 9 8.07827 9.42142 8.82841 10.1716C9.57856 10.9217 10 11.9391 10 13V18C10 18.2652 9.89464 18.5196 9.70711 18.7071C9.51957 18.8946 9.26522 19 9 19H3C2.73478 19 2.48043 18.8946 2.29289 18.7071C2.10536 18.5196 2 18.2652 2 18V13C2 11.9391 2.42142 10.9217 3.17157 10.1716C3.92172 9.42142 4.93913 9 6 9Z" fill="#C7CED5"/>
<path d="M6 8C7.38071 8 8.5 6.88071 8.5 5.5C8.5 4.11929 7.38071 3 6 3C4.61929 3 3.5 4.11929 3.5 5.5C3.5 6.88071 4.61929 8 6 8Z" fill="#C7CED5"/>
<path d="M21 19H15C14.7348 19 14.4804 18.8946 14.2929 18.7071C14.1053 18.5196 14 18.2652 14 18V13C14 11.9391 14.4214 10.9217 15.1716 10.1716C15.9217 9.42142 16.9391 9 18 9C19.0609 9 20.0783 9.42142 20.8284 10.1716C21.5786 10.9217 22 11.9391 22 13V18C22 18.2652 21.8946 18.5196 21.7071 18.7071C21.5196 18.8946 21.2652 19 21 19Z" fill="#C7CED5"/>
<path d="M18 8C19.3807 8 20.5 6.88071 20.5 5.5C20.5 4.11929 19.3807 3 18 3C16.6193 3 15.5 4.11929 15.5 5.5C15.5 6.88071 16.6193 8 18 8Z" fill="#C7CED5"/>
<path d="M11.1201 12H12.8701C13.931 12 14.9484 12.4214 15.6985 13.1716C16.4487 13.9217 16.8701 14.9391 16.8701 16V21C16.8701 21.2652 16.7648 21.5196 16.5772 21.7071C16.3897 21.8946 16.1353 22 15.8701 22H8.12012C7.8549 22 7.60055 21.8946 7.41301 21.7071C7.22547 21.5196 7.12012 21.2652 7.12012 21V16C7.12012 14.9391 7.54154 13.9217 8.29169 13.1716C9.04183 12.4214 10.0593 12 11.1201 12Z" fill="#6B758F"/>
<path d="M12 11C13.3807 11 14.5 9.88071 14.5 8.5C14.5 7.11929 13.3807 6 12 6C10.6193 6 9.5 7.11929 9.5 8.5C9.5 9.88071 10.6193 11 12 11Z" fill="#6B758F"/>
</svg>
