<svg width="24" height="24" viewBox="0 0 24 24" fill="none" xmlns="http://www.w3.org/2000/svg">
<path d="M2 4H14C14.2652 4 14.5196 4.10537 14.7071 4.29291C14.8946 4.48044 15 4.73478 15 5V19H2C1.73478 19 1.48044 18.8946 1.29291 18.7071C1.10537 18.5196 1 18.2652 1 18V5C1 4.73478 1.10537 4.48044 1.29291 4.29291C1.48044 4.10537 1.73478 4 2 4Z" fill="#48AFBA"/>
<path d="M22 19.0098H15V7.00977H18C18.2996 7.00995 18.5953 7.07745 18.8653 7.20726C19.1354 7.33707 19.3728 7.52589 19.56 7.75977L22.56 11.4598C22.8445 11.8143 22.9996 12.2552 23 12.7098V18.0098C23 18.275 22.8946 18.5293 22.7071 18.7169C22.5196 18.9044 22.2652 19.0098 22 19.0098Z" fill="#E8E8E8"/>
<path d="M5.5 22C6.88071 22 8 20.8807 8 19.5C8 18.1193 6.88071 17 5.5 17C4.11929 17 3 18.1193 3 19.5C3 20.8807 4.11929 22 5.5 22Z" fill="#737A83"/>
<path d="M18.5 22C19.8807 22 21 20.8807 21 19.5C21 18.1193 19.8807 17 18.5 17C17.1193 17 16 18.1193 16 19.5C16 20.8807 17.1193 22 18.5 22Z" fill="#737A83"/>
</svg>
