<svg width="24" height="24" viewBox="0 0 24 24" fill="none" xmlns="http://www.w3.org/2000/svg">
<path d="M11 20.5V2C11 1.73478 11.1054 1.48041 11.2929 1.29288C11.4804 1.10534 11.7348 1 12 1C12.2652 1 12.5196 1.10534 12.7071 1.29288C12.8946 1.48041 13 1.73478 13 2V20.5C13 20.6326 12.9473 20.7598 12.8536 20.8535C12.7598 20.9473 12.6326 21 12.5 21H11.5C11.3674 21 11.2402 20.9473 11.1464 20.8535C11.0527 20.7598 11 20.6326 11 20.5Z" fill="#737A83"/>
<path d="M21 20H3C2.44772 20 2 20.4477 2 21C2 21.5523 2.44772 22 3 22H21C21.5523 22 22 21.5523 22 21C22 20.4477 21.5523 20 21 20Z" fill="#88BFFF"/>
<path d="M2 13.0098V12.0098C2 9.62282 2.94822 7.33363 4.63605 5.64581C6.32387 3.95798 8.61305 3.00977 11 3.00977H13C15.3869 3.00977 17.6762 3.95798 19.364 5.64581C21.0518 7.33363 22 9.62282 22 12.0098V13.0098" fill="#F4868F"/>
<path d="M8 13.0098C8 7.50977 9.79 3.00977 12 3.00977C14.21 3.00977 16 7.45977 16 13.0098" fill="white"/>
</svg>
