<svg width="24" height="24" viewBox="0 0 24 24" fill="none" xmlns="http://www.w3.org/2000/svg">
<path d="M16 5H3C1.89543 5 1 5.89543 1 7V17C1 18.1046 1.89543 19 3 19H16C17.1046 19 18 18.1046 18 17V7C18 5.89543 17.1046 5 16 5Z" fill="#C7CED5"/>
<path d="M21.42 17.3595L18 14.8995V9.0995L21.42 6.63947C21.5699 6.53271 21.7464 6.46943 21.9301 6.45655C22.1137 6.44368 22.2973 6.48172 22.4606 6.56651C22.624 6.6513 22.7608 6.77952 22.856 6.93708C22.9511 7.09464 23.001 7.27542 23 7.45948V16.5495C22.9992 16.7327 22.9479 16.9122 22.8521 17.0683C22.7562 17.2244 22.6192 17.3512 22.4562 17.4348C22.2931 17.5183 22.1103 17.5555 21.9276 17.5422C21.7448 17.529 21.5692 17.4657 21.42 17.3595Z" fill="#737A83"/>
</svg>
