<svg width="24" height="24" viewBox="0 0 24 24" fill="none" xmlns="http://www.w3.org/2000/svg">
<path d="M17 10H1V15H17V10Z" fill="#6B758F"/>
<path d="M19 10.0098H17L14 15.0098H23V13.0098C23 10.7998 21.21 10.0098 19 10.0098Z" fill="#6B758F"/>
<path d="M1 17.0098C1 17.5403 1.21071 18.049 1.58578 18.4241C1.96086 18.7991 2.46957 19.0098 3 19.0098H21C21.5304 19.0098 22.0391 18.7991 22.4142 18.4241C22.7893 18.049 23 17.5403 23 17.0098V15.0098H1V17.0098Z" fill="#E7ECEF"/>
<path d="M17 10.0097L10 6.00977H3C2.46957 6.00977 1.96086 6.22048 1.58578 6.59555C1.21071 6.97063 1 7.47934 1 8.00977V10.0097H17Z" fill="#6B758F"/>
<path d="M16.4362 9.68457L14.7041 8.68457L13.7041 10.4166L15.4362 11.4166L16.4362 9.68457Z" fill="white"/>
<path d="M12.9967 7.7002L11.2646 6.7002L10.2646 8.43225L11.9967 9.43225L12.9967 7.7002Z" fill="white"/>
</svg>
