<svg width="24" height="24" viewBox="0 0 24 24" fill="none" xmlns="http://www.w3.org/2000/svg">
<path d="M11.9997 7.9405C14.817 7.93178 17.5598 8.84488 19.8097 10.5405C19.9792 10.6675 20.1901 10.7267 20.401 10.7063C20.6119 10.686 20.8076 10.5876 20.9497 10.4305L22.4697 8.6305C22.5423 8.54685 22.5972 8.44937 22.631 8.34393C22.6649 8.23849 22.6771 8.12728 22.6668 8.01701C22.6565 7.90674 22.624 7.79969 22.5712 7.70233C22.5184 7.60496 22.4465 7.5193 22.3597 7.45051C19.391 5.16438 15.7466 3.92967 11.9997 3.9405C8.23591 3.93166 4.57649 5.17727 1.5997 7.48051C1.51291 7.5493 1.44095 7.63496 1.38817 7.73232C1.33539 7.82969 1.30288 7.93674 1.2926 8.04701C1.28232 8.15728 1.29449 8.26849 1.32837 8.37393C1.36224 8.47937 1.41712 8.57685 1.4897 8.6605L3.0097 10.4505C3.14921 10.6118 3.34544 10.7132 3.55769 10.7336C3.76994 10.7541 3.98193 10.6921 4.1497 10.5605C6.41111 8.85538 9.16749 7.93541 11.9997 7.9405Z" fill="#DBECFF"/>
<path d="M5.15951 12.9699L6.67952 14.7699C6.80986 14.9229 6.99187 15.0227 7.19098 15.0504C7.39008 15.0781 7.59241 15.0316 7.75952 14.9199C9.00265 14.0515 10.4831 13.5871 11.9995 13.5899C13.5085 13.585 14.9823 14.046 16.2195 14.9099C16.3862 15.0198 16.5877 15.0642 16.7851 15.0347C16.9826 15.0052 17.1622 14.9037 17.2895 14.7499L18.8095 12.9499C18.8846 12.8616 18.9403 12.7585 18.9731 12.6473C19.006 12.5361 19.0151 12.4193 19.0001 12.3044C18.985 12.1895 18.946 12.079 18.8856 11.98C18.8253 11.8811 18.7448 11.7959 18.6495 11.7299C16.7139 10.3333 14.3864 9.5843 11.9995 9.58989C9.60009 9.58308 7.26069 10.3395 5.31952 11.7499C5.22421 11.8159 5.14378 11.9011 5.0834 12C5.02303 12.099 4.98403 12.2095 4.96896 12.3244C4.95389 12.4393 4.96306 12.5562 4.99588 12.6673C5.0287 12.7785 5.08444 12.8816 5.15951 12.9699Z" fill="#B8D3FB"/>
<path d="M8.91971 17.3896L11.3697 20.2696C11.4476 20.3588 11.5437 20.4302 11.6515 20.4792C11.7593 20.5281 11.8763 20.5535 11.9947 20.5535C12.1131 20.5535 12.2301 20.5281 12.3379 20.4792C12.4457 20.4302 12.5418 20.3588 12.6197 20.2696L15.0597 17.3796C15.1384 17.2897 15.1965 17.1836 15.2299 17.0689C15.2633 16.9542 15.2713 16.8335 15.2532 16.7154C15.2351 16.5973 15.1914 16.4845 15.1251 16.3851C15.0589 16.2856 14.9717 16.2018 14.8697 16.1396C14.002 15.6217 13.0102 15.3487 11.9997 15.3496C10.9818 15.3506 9.9832 15.627 9.10971 16.1496C9.0077 16.2119 8.92053 16.2956 8.85429 16.3951C8.78806 16.4946 8.74436 16.6073 8.72626 16.7254C8.70816 16.8435 8.71609 16.9642 8.74951 17.0789C8.78293 17.1936 8.84101 17.2997 8.91971 17.3896Z" fill="#5096FF"/>
</svg>
