<svg width="24" height="24" viewBox="0 0 24 24" fill="none" xmlns="http://www.w3.org/2000/svg">
<path d="M15.86 3.65039L19.4 7.19038L7.90999 18.6704L4 19.0004L4.37999 15.1404L15.86 3.65039Z" fill="#C7CED5"/>
<path d="M18.0498 8.54065L14.5098 5.00064L16.6398 2.88065C16.8271 2.69439 17.0806 2.58984 17.3448 2.58984C17.6089 2.58984 17.8624 2.69439 18.0498 2.88065L20.1698 5.00064C20.2635 5.0936 20.3379 5.20419 20.3887 5.32605C20.4394 5.44791 20.4656 5.57862 20.4656 5.71063C20.4656 5.84264 20.4394 5.97336 20.3887 6.09521C20.3379 6.21707 20.2635 6.32766 20.1698 6.42062L18.0498 8.54065Z" fill="#C7CED5"/>
<path fill-rule="evenodd" clip-rule="evenodd" d="M3 21C3 20.4477 3.44772 20 4 20H20C20.5523 20 21 20.4477 21 21C21 21.5523 20.5523 22 20 22H4C3.44772 22 3 21.5523 3 21Z" fill="#737A83"/>
</svg>
