<svg width="24" height="24" viewBox="0 0 24 24" fill="none" xmlns="http://www.w3.org/2000/svg">
<path d="M9.58525 18.6959L15.7972 12.5023C15.871 12.4286 15.9231 12.3487 15.9535 12.2627C15.9845 12.1767 16 12.0845 16 11.9862C16 11.8879 15.9845 11.7957 15.9535 11.7097C15.9231 11.6237 15.871 11.5438 15.7972 11.47L9.58525 5.25806C9.41321 5.08602 9.19816 5 8.94009 5C8.68203 5 8.46083 5.09217 8.2765 5.2765C8.09217 5.46083 8 5.67588 8 5.92166C8 6.16743 8.09217 6.38249 8.2765 6.56682L13.6959 11.9862L8.2765 17.4055C8.10445 17.5776 8.01843 17.7894 8.01843 18.0411C8.01843 18.2933 8.1106 18.5115 8.29493 18.6959C8.47926 18.8802 8.69432 18.9724 8.94009 18.9724C9.18587 18.9724 9.40092 18.8802 9.58525 18.6959Z" fill="#A7AFB2"/>
</svg>
