<svg width="24" height="24" viewBox="0 0 24 24" fill="none" xmlns="http://www.w3.org/2000/svg">
<path d="M14.4147 18.6959L8.20276 12.5023C8.12903 12.4286 8.07693 12.3487 8.04645 12.2627C8.01548 12.1767 8 12.0845 8 11.9862C8 11.8879 8.01548 11.7957 8.04645 11.7097C8.07693 11.6237 8.12903 11.5438 8.20276 11.47L14.4147 5.25806C14.5868 5.08602 14.8018 5 15.0599 5C15.318 5 15.5392 5.09217 15.7235 5.2765C15.9078 5.46083 16 5.67588 16 5.92166C16 6.16743 15.9078 6.38249 15.7235 6.56682L10.3041 11.9862L15.7235 17.4055C15.8955 17.5776 15.9816 17.7894 15.9816 18.0411C15.9816 18.2933 15.8894 18.5115 15.7051 18.6959C15.5207 18.8802 15.3057 18.9724 15.0599 18.9724C14.8141 18.9724 14.5991 18.8802 14.4147 18.6959Z" fill="#111111"/>
</svg>
