<svg width="24" height="24" viewBox="0 0 24 24" fill="none" xmlns="http://www.w3.org/2000/svg">
<path d="M19.1956 12.0023C18.9835 12.0023 18.7801 12.0866 18.6301 12.2366C18.4801 12.3866 18.3958 12.59 18.3958 12.8021V17.6007C18.3958 17.8128 18.3116 18.0162 18.1616 18.1662C18.0116 18.3162 17.8082 18.4005 17.5961 18.4005H6.3993C6.18719 18.4005 5.98377 18.3162 5.83378 18.1662C5.6838 18.0162 5.59954 17.8128 5.59954 17.6007V6.40394C5.59954 6.19183 5.6838 5.98841 5.83378 5.83842C5.98377 5.68843 6.18719 5.60417 6.3993 5.60417H11.1979C11.41 5.60417 11.6134 5.51991 11.7634 5.36993C11.9134 5.21994 11.9977 5.01652 11.9977 4.80441C11.9977 4.59229 11.9134 4.38887 11.7634 4.23888C11.6134 4.0889 11.41 4.00464 11.1979 4.00464H6.3993C5.76297 4.00464 5.1527 4.25742 4.70274 4.70738C4.25278 5.15733 4 5.76761 4 6.40394V17.6007C4 18.237 4.25278 18.8473 4.70274 19.2973C5.1527 19.7472 5.76297 20 6.3993 20H17.5961C18.2324 20 18.8427 19.7472 19.2926 19.2973C19.7426 18.8473 19.9954 18.237 19.9954 17.6007V12.8021C19.9954 12.59 19.9111 12.3866 19.7611 12.2366C19.6111 12.0866 19.4077 12.0023 19.1956 12.0023ZM7.19907 12.6101V16.0012C7.19907 16.2133 7.28333 16.4167 7.43332 16.5667C7.58331 16.7167 7.78673 16.8009 7.99884 16.8009H11.3899C11.4951 16.8015 11.5995 16.7814 11.6969 16.7416C11.7943 16.7018 11.883 16.6431 11.9577 16.569L17.4921 11.0266L19.7634 8.80325C19.8384 8.7289 19.8979 8.64044 19.9385 8.54298C19.9791 8.44552 20 8.34099 20 8.23541C20 8.12983 19.9791 8.0253 19.9385 7.92784C19.8979 7.83038 19.8384 7.74192 19.7634 7.66758L16.3724 4.23657C16.2981 4.16161 16.2096 4.10211 16.1122 4.06151C16.0147 4.0209 15.9102 4 15.8046 4C15.699 4 15.5945 4.0209 15.497 4.06151C15.3995 4.10211 15.3111 4.16161 15.2367 4.23657L12.9814 6.49991L7.43101 12.0423C7.35688 12.117 7.29824 12.2057 7.25844 12.3031C7.21864 12.4005 7.19846 12.5049 7.19907 12.6101ZM15.8046 5.93208L18.0679 8.19542L16.9323 9.33109L14.6689 7.06775L15.8046 5.93208ZM8.79861 12.938L13.5412 8.19542L15.8046 10.4588L11.062 15.2014H8.79861V12.938Z" fill="white"/>
</svg>
