<svg width="33" height="32" viewBox="0 0 33 32" fill="none" xmlns="http://www.w3.org/2000/svg">
<path fill-rule="evenodd" clip-rule="evenodd" d="M17.1943 11.2777C17.1943 10.8174 16.8212 10.4443 16.361 10.4443C15.9008 10.4443 15.5277 10.8174 15.5277 11.2777V15.3054H11.7777C11.3174 15.3054 10.9443 15.6785 10.9443 16.1388C10.9443 16.599 11.3174 16.9721 11.7777 16.9721H15.5277V20.7221C15.5277 21.1824 15.9008 21.5554 16.361 21.5554C16.8212 21.5554 17.1943 21.1824 17.1943 20.7221V16.9721H21.2221C21.6824 16.9721 22.0554 16.599 22.0554 16.1388C22.0554 15.6785 21.6824 15.3054 21.2221 15.3054H17.1943V11.2777Z" fill="#111111"/>
<rect x="7.25" y="6.75" width="18.5" height="18.5" rx="9.25" stroke="#111111" stroke-width="1.5"/>
</svg>
