<svg width="24" height="24" viewBox="0 0 24 24" fill="none" xmlns="http://www.w3.org/2000/svg">
<path d="M13.3804 4C13.5014 4 13.6193 4.0384 13.717 4.10967C13.8148 4.18094 13.8874 4.28139 13.9244 4.39657L14.553 6.34971C14.817 6.47886 15.0696 6.624 15.3107 6.78743L17.3176 6.35543C17.4359 6.33017 17.5592 6.34311 17.6697 6.3924C17.7802 6.4417 17.8722 6.52479 17.9324 6.62971L19.5164 9.37143C19.5769 9.47629 19.6025 9.59766 19.5896 9.71802C19.5767 9.83839 19.5258 9.95153 19.4444 10.0411L18.0673 11.5611C18.0874 11.8526 18.0874 12.1451 18.0673 12.4366L19.4444 13.9589C19.5258 14.0485 19.5767 14.1616 19.5896 14.282C19.6025 14.4023 19.5769 14.5237 19.5164 14.6286L17.9324 17.3714C17.872 17.4761 17.78 17.559 17.6695 17.6081C17.559 17.6572 17.4358 17.6699 17.3176 17.6446L15.3107 17.2126C15.0707 17.3749 14.817 17.5211 14.5542 17.6503L13.9244 19.6034C13.8874 19.7186 13.8148 19.8191 13.717 19.8903C13.6193 19.9616 13.5014 20 13.3804 20H10.2124C10.0915 20 9.9736 19.9616 9.87584 19.8903C9.77808 19.8191 9.70546 19.7186 9.66844 19.6034L9.04101 17.6514C8.77772 17.5227 8.52377 17.3757 8.28101 17.2114L6.2753 17.6446C6.15697 17.6698 6.03368 17.6569 5.92318 17.6076C5.81269 17.5583 5.72069 17.4752 5.66044 17.3703L4.07644 14.6286C4.01595 14.5237 3.99033 14.4023 4.00327 14.282C4.01621 14.1616 4.06705 14.0485 4.14844 13.9589L5.52558 12.4366C5.50564 12.1459 5.50564 11.8541 5.52558 11.5634L4.14844 10.0411C4.06705 9.95153 4.01621 9.83839 4.00327 9.71802C3.99033 9.59766 4.01595 9.47629 4.07644 9.37143L5.66044 6.62857C5.72086 6.52386 5.81293 6.441 5.92341 6.39192C6.03389 6.34284 6.15709 6.33006 6.2753 6.35543L8.28101 6.78857C8.5233 6.62514 8.77701 6.47771 9.04101 6.34857L9.66958 4.39657C9.70648 4.28177 9.77876 4.18158 9.87606 4.11034C9.97336 4.03911 10.0907 4.00049 10.2113 4H13.3793H13.3804ZM12.9622 5.14286H10.6307L9.98158 7.16229L9.54387 7.376C9.32869 7.4813 9.12097 7.6012 8.92215 7.73486L8.51758 8.00914L6.44215 7.56114L5.27644 9.58171L6.6993 11.1566L6.66501 11.6411C6.64859 11.8801 6.64859 12.1199 6.66501 12.3589L6.6993 12.8434L5.27415 14.4183L6.44101 16.4389L8.51644 15.992L8.92101 16.2651C9.11982 16.3988 9.32755 16.5187 9.54273 16.624L9.98044 16.8377L10.6307 18.8571H12.9644L13.6159 16.8366L14.0524 16.624C14.2674 16.5189 14.4747 16.399 14.673 16.2651L15.0764 15.992L17.153 16.4389L18.3187 14.4183L16.8947 12.8434L16.929 12.3589C16.9455 12.1195 16.9455 11.8793 16.929 11.64L16.8947 11.1554L18.3199 9.58171L17.153 7.56114L15.0764 8.00686L14.673 7.73486C14.4748 7.60093 14.2674 7.48102 14.0524 7.376L13.6159 7.16343L12.9633 5.14286H12.9622ZM11.7964 8.57143C12.7058 8.57143 13.5778 8.93265 14.2208 9.57563C14.8638 10.2186 15.225 11.0907 15.225 12C15.225 12.9093 14.8638 13.7814 14.2208 14.4244C13.5778 15.0673 12.7058 15.4286 11.7964 15.4286C10.8871 15.4286 10.0151 15.0673 9.37207 14.4244C8.72909 13.7814 8.36787 12.9093 8.36787 12C8.36787 11.0907 8.72909 10.2186 9.37207 9.57563C10.0151 8.93265 10.8871 8.57143 11.7964 8.57143ZM11.7964 9.71429C11.1902 9.71429 10.6089 9.9551 10.1802 10.3838C9.75154 10.8124 9.51073 11.3938 9.51073 12C9.51073 12.6062 9.75154 13.1876 10.1802 13.6162C10.6089 14.0449 11.1902 14.2857 11.7964 14.2857C12.4026 14.2857 12.984 14.0449 13.4127 13.6162C13.8413 13.1876 14.0822 12.6062 14.0822 12C14.0822 11.3938 13.8413 10.8124 13.4127 10.3838C12.984 9.9551 12.4026 9.71429 11.7964 9.71429Z" fill="#111111" stroke="#111111" stroke-width="0.5"/>
</svg>
