<svg width="25" height="24" viewBox="0 0 25 24" fill="none" xmlns="http://www.w3.org/2000/svg">
    <path fill-rule="evenodd" clip-rule="evenodd" d="M12.833 20.3333C17.4354 20.3333 21.1663 16.6024 21.1663 12C21.1663 7.39763 17.4354 3.66667 12.833 3.66667C8.23064 3.66667 4.49967 7.39763 4.49967 12C4.49967 16.6024 8.23064 20.3333 12.833 20.3333ZM12.833 22C18.3559 22 22.833 17.5228 22.833 12C22.833 6.47715 18.3559 2 12.833 2C7.31016 2 2.83301 6.47715 2.83301 12C2.83301 17.5228 7.31016 22 12.833 22Z" fill="#111111"/>
    <path d="M11.1663 9.77778C11.1663 10.3914 10.6689 10.8889 10.0552 10.8889C9.44158 10.8889 8.94412 10.3914 8.94412 9.77778C8.94412 9.16413 9.44158 8.66667 10.0552 8.66667C10.6689 8.66667 11.1663 9.16413 11.1663 9.77778Z" fill="#111111"/>
    <path d="M16.7219 9.77778C16.7219 10.3914 16.2244 10.8889 15.6108 10.8889C14.9971 10.8889 14.4997 10.3914 14.4997 9.77778C14.4997 9.16413 14.9971 8.66667 15.6108 8.66667C16.2244 8.66667 16.7219 9.16413 16.7219 9.77778Z" fill="#111111"/>
    <path fill-rule="evenodd" clip-rule="evenodd" d="M9.21939 12.3263C9.65282 12.1715 10.1297 12.3974 10.2845 12.8308C10.6265 13.7886 11.7076 14.5 12.833 14.5C13.9584 14.5 15.0395 13.7886 15.3816 12.8308C15.5364 12.3974 16.0132 12.1715 16.4466 12.3263C16.88 12.4811 17.1059 12.958 16.9511 13.3914C16.3408 15.1003 14.5648 16.1667 12.833 16.1667C11.1012 16.1667 9.32521 15.1003 8.71489 13.3914C8.5601 12.958 8.78597 12.4811 9.21939 12.3263Z" fill="#111111"/>
</svg>
